<svg width="496" height="97" viewBox="0 0 496 97" fill="none" xmlns="http://www.w3.org/2000/svg">
<path d="M133.159 97V0H160.023L198.796 63.3271H184.672L222.337 0H249.201L249.478 97H219.706L219.429 44.8971H224.137L198.381 88.27H183.979L157.115 44.8971H162.931V97H133.159Z" fill="black"/>
<path d="M265.278 97V0H313.051C323.852 0 333.361 1.98619 341.577 5.95858C349.793 9.83857 356.209 15.3814 360.825 22.5871C365.441 29.7929 367.749 38.3843 367.749 48.3614C367.749 58.4309 365.441 67.1148 360.825 74.4129C356.209 81.6186 349.793 87.2076 341.577 91.18C333.361 95.06 323.852 97 313.051 97H265.278ZM297.958 71.5029H311.667C316.283 71.5029 320.298 70.6252 323.714 68.87C327.222 67.1148 329.945 64.5281 331.884 61.11C333.823 57.5995 334.792 53.35 334.792 48.3614C334.792 43.4652 333.823 39.3081 331.884 35.89C329.945 32.4719 327.222 29.8852 323.714 28.13C320.298 26.3748 316.283 25.4971 311.667 25.4971H297.958V71.5029Z" fill="black"/>
<path d="M379.681 97V0H406.545L445.318 63.3271H431.194L468.859 0H495.723L496 97H466.228L465.951 44.8971H470.659L444.903 88.27H430.502L403.638 44.8971H409.453V97H379.681Z" fill="black"/>
<path d="M57.0666 0.0978396C45.7009 0.250498 40.7866 0.490391 39.7474 0.948367C38.8382 1.36273 37.5176 2.40953 37.3877 2.8457C37.2794 3.23825 35.5259 17.4791 35.5259 18.0462C35.5259 18.3079 35.8723 18.3733 37.1062 18.3733C37.9506 18.3733 40.5917 18.5259 42.9731 18.7222L47.2596 19.093L52.2821 21.5355C58.7335 24.7195 61.8077 26.0498 65.3797 27.2275C68.757 28.3615 70.359 29.103 71.1383 29.9317L71.6796 30.4988L70.8136 31.2184C69.6446 32.1562 69.2332 33.0285 69.2549 34.5551C69.2765 35.9945 70.1641 38.4152 71.3765 40.3562C72.4373 42.0572 74.3207 44.5434 74.5372 44.5434C74.6238 44.5434 74.7104 41.7737 74.7104 38.3716C74.7104 33.6828 74.7754 32.1126 74.9919 31.8073C75.2733 31.4147 77.0918 31.0222 77.0918 31.3711C77.0918 31.4583 76.8753 31.9817 76.6155 32.5269C76.1392 33.5083 76.1176 33.7264 76.1176 40.0072V46.4843L76.7671 47.1604C77.1351 47.5529 78.1526 48.4471 79.0402 49.1886L80.6639 50.4971L80.7721 40.9232C80.8371 35.6673 80.9237 31.3275 80.9453 31.3057C80.967 31.2839 81.1401 31.1094 81.335 30.9349C81.6164 30.6296 83.37 30.4115 83.37 30.6732C83.37 30.7168 83.2184 31.1094 83.0453 31.5238C82.5257 32.7886 82.2875 36.7578 82.2875 44.2381C82.2875 50.737 82.3092 51.2604 82.6772 51.3694C82.8721 51.4348 83.9545 51.7183 85.0586 52.0237L87.0503 52.5907V41.8391C87.0503 29.6918 86.9421 30.3679 88.7389 30.3679H89.6265L89.3234 31.1094C88.7173 32.5487 88.5441 35.82 88.609 44.4343L88.674 52.9396L90.8389 53.4194C92.0079 53.6811 93.0687 53.8337 93.1553 53.7901C93.2419 53.7247 93.3285 48.5561 93.3285 42.2753C93.3285 31.5019 93.3501 30.8477 93.7182 30.5206C94.1078 30.1498 95.7099 29.9972 95.7099 30.3025C95.7099 30.4115 95.5583 30.9131 95.3635 31.4583C94.8872 32.8541 94.6058 39.8546 94.7573 46.7242C94.8439 50.4753 94.8223 52.7869 94.6707 53.3103L94.4542 54.1173L95.5583 54.3353C96.7274 54.5752 99.1953 55.0114 99.3252 55.0114C99.3685 55.0114 99.3902 49.6029 99.3902 43.0168V31.0003L99.9314 30.4769C100.256 30.128 100.711 29.9317 101.1 29.9317C101.88 29.9317 102.096 30.2152 101.772 30.8041C101.23 31.8291 101.057 34.2498 100.906 43.9982C100.819 49.6247 100.689 54.4662 100.603 54.7061C100.429 55.1859 100.646 55.2513 104.867 55.7747L105.668 55.8837V43.562C105.668 31.5238 105.668 31.2402 106.101 30.8041C106.556 30.3461 108.05 30.1716 108.05 30.586C108.05 30.695 107.898 31.3493 107.682 32.0472C107.4 33.1158 107.314 35.0131 107.184 43.7801C107.097 50.8024 106.967 54.488 106.794 54.9896C106.664 55.404 106.599 55.7965 106.664 55.8619C106.729 55.9274 107.942 56.0364 109.37 56.08L111.947 56.1454V43.7146V31.262L112.423 30.9349C112.942 30.5642 114.328 30.4551 114.328 30.7823C114.328 30.8913 114.22 31.262 114.111 31.5892C113.592 32.9413 113.44 35.7764 113.44 44.1944C113.462 51.3258 113.397 53.3976 113.137 54.5098C112.964 55.2949 112.813 55.9492 112.813 56.0146C112.813 56.08 113.96 56.08 115.367 56.0582L117.9 55.9928V42.7551V29.5174L116.926 29.4083C111.622 28.7541 104.066 28.4051 95.3851 28.4051C85.34 28.4051 77.2433 29.0158 73.6496 30.0626L72.4806 30.3897L71.7012 29.6482C70.6404 28.6232 69.3198 27.9908 65.2715 26.5732C63.388 25.919 60.617 24.8286 59.1232 24.1525C54.8367 22.2116 49.5977 19.6164 49.5977 19.4637C49.5977 19.3765 50.5069 19.2456 51.611 19.1802C54.0574 19.0057 55.1831 18.6786 58.4737 17.1738C61.6345 15.7127 64.0592 14.993 66.8302 14.6659C70.2074 14.2951 78.5423 14.0334 92.311 13.8808C99.3036 13.7935 105.019 13.6627 105.019 13.5972C105.019 13.5318 102.269 11.6781 98.8923 9.51907L92.7656 5.54994L86.8122 4.54675C75.4032 2.62761 72.0043 1.99517 71.7878 1.75528C71.5064 1.47177 96.1212 1.66804 102.594 2.01698C105.105 2.14783 107.379 2.23506 107.617 2.19145C108.05 2.12602 108.028 2.10421 107.552 1.51539C107.097 0.948367 106.946 0.904751 104.369 0.708475C96.2727 0.119648 75.2733 -0.163861 57.0666 0.0978396Z" fill="black"/>
<path d="M33.1449 4.7656C31.5429 6.61932 29.1832 10.9374 27.5162 15.0374C26.8884 16.5858 26.8234 16.9565 26.9966 17.6544L27.1915 18.4831L28.8368 18.5485C29.9842 18.5921 30.5471 18.5267 30.6986 18.3304C30.98 17.9815 34.0758 4.52571 33.9676 4.17678C33.9243 4.04593 33.5562 4.30763 33.1449 4.7656Z" fill="black"/>
<path d="M13.3362 16.5195C13.5743 17.8716 14.1156 18.6567 15.1764 19.1801C16.2371 19.7035 18.9216 20.1179 21.2813 20.1179H22.7535L23.3163 21.2301C24.0957 22.8003 24.7452 23.3892 25.6544 23.3892C26.0658 23.3892 26.4771 23.2801 26.542 23.1711C26.607 23.0402 26.5204 22.953 26.3255 22.953C25.6328 22.953 24.572 21.5791 24.0741 20.0525C23.771 19.1583 23.4029 18.5041 23.1432 18.3514C22.905 18.2206 21.2164 18.0243 19.3979 17.9371C15.7392 17.719 14.8949 17.4791 13.8558 16.3669L13.2063 15.6472L13.3362 16.5195Z" fill="black"/>
<path d="M33.5343 27.8379C31.0663 28.514 30.6982 29.2773 30.9797 33.0283C31.4127 38.7422 32.625 40.9448 35.5476 41.4682C40.6351 42.3405 51.9142 42.4714 59.5346 41.7299C62.0892 41.4682 64.2324 41.2283 64.2757 41.1629C64.4273 41.0102 62.9118 38.8294 61.3748 36.9102C59.9676 35.1656 57.6944 32.9411 57.9326 33.5299C58.3656 34.6204 58.3006 36.3868 57.8243 37.5209C56.9584 39.5491 55.2048 40.6831 52.9533 40.6831C50.3338 40.7049 48.2122 38.8076 47.7576 36.1033C47.4329 34.097 48.84 31.48 50.6802 30.673C51.2431 30.4113 51.4596 30.2369 51.2864 30.1278C50.9183 29.9316 44.8783 28.405 44.4453 28.405C44.2288 28.405 44.402 28.7103 45.0082 29.2991C47.5195 31.8071 47.6493 35.6235 45.3329 38.2187C43.9257 39.8108 42.6051 40.3996 40.5052 40.3996C37.8424 40.3996 35.9156 39.2001 34.7249 36.8012C33.1013 33.6172 34.4219 29.8007 37.7341 28.056L38.665 27.5544H36.6084C35.4827 27.5544 34.0971 27.6853 33.5343 27.8379Z" fill="black"/>
<path d="M38.0375 32.3526C37.3017 33.2249 37.2801 34.2717 38.0158 35.1005L38.5785 35.7111L38.124 34.9478C37.5614 33.9446 37.583 33.443 38.2322 32.4616C38.8814 31.5021 38.7949 31.4366 38.0375 32.3526Z" fill="black"/>
<path d="M14.4187 33.443C12.8816 33.552 11.0198 33.7047 10.3054 33.7919L9.02808 33.9664L9.67754 34.7079L10.3487 35.4494L14.3321 34.5116C20.1123 33.1595 20.1123 33.0722 14.4187 33.443Z" fill="black"/>
<path d="M50.2908 34.337C49.9229 34.7078 49.9662 36.1689 50.3774 36.5615C50.8534 37.0631 50.9833 36.9977 50.5938 36.4306C50.1826 35.8418 50.1393 34.7078 50.5072 34.337C50.6587 34.1844 50.7236 34.0753 50.6587 34.0753C50.5938 34.0753 50.4423 34.1844 50.2908 34.337Z" fill="black"/>
<path d="M17.0597 43.6274C14.7649 46.179 13.2495 58.9369 13.6608 72.5672C13.7691 75.7948 13.8124 78.4772 13.7691 78.5209C13.7474 78.5645 12.1887 78.3246 10.3269 77.9975C7.31768 77.4522 6.928 77.3432 6.8414 76.9506C6.79811 76.6889 6.55997 73.3523 6.30018 69.514C5.43422 56.1672 4.74146 51.413 3.46417 50.0173L3.00955 49.5375L2.48997 50.0173C0.974547 51.4566 -0.0213029 58.588 0.000346063 67.9438C0.000346063 75.6421 0.476622 80.6581 1.53742 84.0602C2.31678 86.6118 1.73226 86.4155 8.68156 86.4155H14.7216L14.9597 87.6586C15.7175 91.5187 16.7783 94.1793 17.6442 94.3756C18.0555 94.4628 25.8275 94.9644 36.1757 95.575C53.9278 96.6 83.6085 97.2543 97.5071 96.9053C107.422 96.6436 119.286 96.0766 119.979 95.8367C120.26 95.7277 117.229 94.5282 109.998 91.9112L99.607 88.1602H71.6799C51.7413 88.1602 43.7312 88.0947 43.6229 87.9203C43.558 87.7894 43.6013 86.7644 43.7528 85.6304C43.9044 84.4964 43.9693 83.515 43.9044 83.4496C43.8394 83.3841 39.7911 83.4932 34.8984 83.6676C25.1564 84.0602 25.0481 84.0602 24.0956 82.8389C23.8575 82.5118 23.5327 81.7267 23.4028 81.1161C23.2946 80.4836 22.84 75.2714 22.4286 69.514C21.1297 51.6747 20.2854 45.6556 18.8349 43.8019C18.3153 43.1476 17.5576 43.0604 17.0597 43.6274ZM18.1854 49.9518C18.5318 50.6061 19.0514 53.8337 19.3328 57.1922C19.7009 61.5103 19.7009 77.4959 19.3328 81.6176C18.8133 87.3096 18.2071 89.6649 17.4277 89.0325C15.2845 87.2224 15.0463 54.7715 17.1463 50.1263C17.4494 49.4721 17.8824 49.3848 18.1854 49.9518ZM3.24768 56.0364C4.26518 59.831 4.24353 76.5799 3.22603 80.6799C2.96625 81.7267 2.51162 81.9012 2.18689 81.0942C1.12609 78.281 1.12609 58.5662 2.18689 55.7529C2.48997 54.9678 3.00955 55.1204 3.24768 56.0364Z" fill="black"/>
<path d="M37.3664 54.815C36.4138 55.0549 35.4613 55.8618 35.1149 56.7341C34.7035 57.7591 32.0624 74.617 32.0624 76.209C32.0624 78.2154 32.3438 78.3026 38.9251 78.4771C46.6537 78.6952 52.0876 78.15 54.6855 76.9505C56.3741 76.1872 57.5865 74.3989 60.6173 68.2054C64.5358 60.2235 65.4883 57.4756 64.6656 56.5597C63.9512 55.7528 61.0936 55.4474 50.031 55.0113C40.3972 54.6405 38.254 54.5969 37.3664 54.815ZM62.2626 58.4352C62.6956 58.6969 62.6956 58.6969 62.2626 58.8714C61.7214 59.0894 37.4963 59.1113 36.955 58.8714C36.1973 58.566 36.8251 58.4134 39.3797 58.2607C43.5363 58.0208 61.7647 58.1735 62.2626 58.4352ZM60.8771 61.9245C61.0503 62.099 61.0286 62.208 60.8338 62.3171C60.4441 62.557 42.9085 62.7096 39.5746 62.4916C38.0591 62.4043 36.8035 62.208 36.7602 62.099C36.6736 61.7283 40.6786 61.6192 50.9402 61.641C57.6081 61.6628 60.7039 61.7501 60.8771 61.9245ZM58.9287 65.4139C59.405 65.8937 57.6081 66.0027 47.7578 66.0027C38.3622 66.0027 35.6994 65.8719 36.0891 65.4793C36.3922 65.174 38.7086 65.1086 48.9918 65.1304C56.1143 65.1522 58.7338 65.2176 58.9287 65.4139ZM57.0885 68.7942C57.1751 68.9032 57.1751 69.0341 57.0885 69.1213C56.872 69.3394 38.7086 69.4921 36.8901 69.2958C35.2664 69.1213 35.1149 68.816 36.5654 68.6851C38.3622 68.5325 56.9153 68.6415 57.0885 68.7942ZM55.3566 72.2835C55.4432 72.3926 55.4432 72.5234 55.3566 72.6107C55.1401 72.8505 40.1591 72.9814 37.3447 72.7851C35.2231 72.6325 34.4871 72.3926 35.5912 72.1745C36.4138 72 55.1834 72.1309 55.3566 72.2835ZM53.2783 75.7293C53.9927 76.1872 52.4124 76.2745 43.861 76.2745C35.5262 76.2745 33.1015 76.1218 34.7685 75.7293C35.7427 75.4894 52.8886 75.4894 53.2783 75.7293Z" fill="black"/>
<path d="M81.0975 63.9529C78.3264 64.0619 78.2615 64.0837 76.7894 64.8906C75.945 65.3486 74.6461 66.1991 73.8667 66.7443C72.0266 68.031 67.502 72.6108 66.3113 74.3555L65.3804 75.7076L66.636 76.3619C68.2164 77.147 71.0957 78.0411 73.0874 78.3464C74.1049 78.4991 82.2449 78.5645 97.4424 78.5209L120.26 78.4555L119.113 77.5177L117.944 76.6017H115.303C113.116 76.6017 95.5157 75.2496 90.8395 74.7262C87.6138 74.3555 91.3158 74.2246 105.323 74.2246L120.217 74.2028L119.178 73.3305L118.117 72.4581H115.952C113.549 72.4581 91.2941 70.6044 90.0818 70.2991C89.6272 70.1901 95.5157 70.081 104.803 70.081L120.282 70.0374L119.2 69.0778L118.117 68.0965H115.563C114.177 68.0965 107.834 67.6603 101.512 67.1151C95.1693 66.5699 89.8436 66.1119 89.6705 66.1119C89.4756 66.0901 89.7571 66.0029 90.2983 65.9156C90.8395 65.8066 97.7455 65.7194 105.647 65.7194C113.549 65.6975 120.066 65.6757 120.087 65.6321C120.13 65.5885 119.741 65.1959 119.2 64.7598L118.247 63.9529L101.079 63.8874C91.6405 63.8656 82.6562 63.8874 81.0975 63.9529Z" fill="black"/>
</svg>
