<svg width="510" height="137" viewBox="0 0 510 137" fill="none" xmlns="http://www.w3.org/2000/svg">
<path d="M220.679 111.264C222.759 111.264 224.563 111.665 226.09 112.466C227.65 113.236 228.853 114.423 229.698 116.026C230.575 117.63 231.014 119.65 231.014 122.087V136.759H227.553V122.424C227.553 119.762 226.903 117.758 225.603 116.411C224.335 115.032 222.531 114.343 220.191 114.343C218.436 114.343 216.909 114.711 215.609 115.449C214.341 116.155 213.35 117.197 212.635 118.576C211.952 119.923 211.611 121.558 211.611 123.482V136.759H208.15V122.424C208.15 119.762 207.5 117.758 206.2 116.411C204.9 115.032 203.08 114.343 200.74 114.343C199.017 114.343 197.506 114.711 196.206 115.449C194.906 116.155 193.898 117.197 193.183 118.576C192.501 119.923 192.159 121.558 192.159 123.482V136.759H188.698V111.504H192.013V118.335L191.477 117.133C192.257 115.305 193.508 113.878 195.231 112.851C196.986 111.793 199.049 111.264 201.422 111.264C203.925 111.264 206.053 111.889 207.808 113.14C209.563 114.359 210.701 116.203 211.221 118.672L209.856 118.143C210.604 116.09 211.92 114.439 213.805 113.188C215.722 111.905 218.014 111.264 220.679 111.264Z" fill="black"/>
<path d="M250.59 137C248.152 137 245.958 136.455 244.008 135.364C242.091 134.274 240.58 132.767 239.475 130.843C238.37 128.886 237.817 126.641 237.817 124.108C237.817 121.542 238.37 119.297 239.475 117.373C240.58 115.449 242.091 113.958 244.008 112.899C245.958 111.809 248.152 111.264 250.59 111.264C252.832 111.264 254.831 111.761 256.586 112.755C258.374 113.749 259.788 115.208 260.828 117.133C261.9 119.025 262.436 121.35 262.436 124.108C262.436 126.834 261.916 129.159 260.876 131.083C259.836 133.007 258.423 134.483 256.635 135.509C254.88 136.503 252.865 137 250.59 137ZM250.834 133.969C252.654 133.969 254.279 133.569 255.709 132.767C257.171 131.933 258.309 130.778 259.121 129.303C259.966 127.796 260.389 126.064 260.389 124.108C260.389 122.12 259.966 120.388 259.121 118.913C258.309 117.437 257.171 116.299 255.709 115.497C254.279 114.663 252.654 114.246 250.834 114.246C249.046 114.246 247.437 114.663 246.007 115.497C244.577 116.299 243.44 117.437 242.595 118.913C241.75 120.388 241.327 122.12 241.327 124.108C241.327 126.064 241.75 127.796 242.595 129.303C243.44 130.778 244.577 131.933 246.007 132.767C247.437 133.569 249.046 133.969 250.834 133.969ZM260.486 136.759V129.159L260.828 124.06L260.34 118.961V101.066H263.801V136.759H260.486Z" fill="black"/>
<path d="M305.422 111.264C307.502 111.264 309.306 111.665 310.833 112.466C312.393 113.236 313.596 114.423 314.441 116.026C315.318 117.63 315.757 119.65 315.757 122.087V136.759H312.296V122.424C312.296 119.762 311.646 117.758 310.346 116.411C309.078 115.032 307.274 114.343 304.934 114.343C303.179 114.343 301.652 114.711 300.352 115.449C299.084 116.155 298.093 117.197 297.378 118.576C296.695 119.923 296.354 121.558 296.354 123.482V136.759H292.893V122.424C292.893 119.762 292.243 117.758 290.943 116.411C289.643 115.032 287.823 114.343 285.483 114.343C283.76 114.343 282.249 114.711 280.949 115.449C279.649 116.155 278.641 117.197 277.926 118.576C277.244 119.923 276.903 121.558 276.903 123.482V136.759H273.441V111.504H276.756V118.335L276.22 117.133C277 115.305 278.251 113.878 279.974 112.851C281.729 111.793 283.793 111.264 286.165 111.264C288.668 111.264 290.797 111.889 292.552 113.14C294.307 114.359 295.444 116.203 295.964 118.672L294.599 118.143C295.347 116.09 296.663 114.439 298.548 113.188C300.466 111.905 302.757 111.264 305.422 111.264Z" fill="black"/>
<path d="M335.772 137C333.237 137 330.962 136.455 328.947 135.364C326.964 134.242 325.404 132.719 324.267 130.794C323.129 128.838 322.56 126.609 322.56 124.108C322.56 121.574 323.129 119.345 324.267 117.421C325.404 115.497 326.964 113.99 328.947 112.899C330.962 111.809 333.237 111.264 335.772 111.264C337.949 111.264 339.916 111.681 341.671 112.515C343.426 113.348 344.807 114.599 345.815 116.267L343.231 117.999C342.353 116.716 341.264 115.77 339.964 115.16C338.664 114.551 337.251 114.246 335.723 114.246C333.903 114.246 332.262 114.663 330.799 115.497C329.337 116.299 328.183 117.437 327.338 118.913C326.493 120.388 326.07 122.12 326.07 124.108C326.07 126.096 326.493 127.828 327.338 129.303C328.183 130.778 329.337 131.933 330.799 132.767C332.262 133.569 333.903 133.969 335.723 133.969C337.251 133.969 338.664 133.665 339.964 133.055C341.264 132.446 342.353 131.516 343.231 130.265L345.815 131.997C344.807 133.633 343.426 134.883 341.671 135.749C339.916 136.583 337.949 137 335.772 137Z" fill="black"/>
<path d="M368.653 136.759V131.179L368.507 130.265V120.933C368.507 118.784 367.89 117.133 366.655 115.978C365.452 114.824 363.648 114.246 361.243 114.246C359.586 114.246 358.009 114.519 356.514 115.064C355.019 115.609 353.752 116.331 352.712 117.229L351.152 114.679C352.452 113.589 354.012 112.755 355.832 112.178C357.652 111.568 359.569 111.264 361.584 111.264C364.899 111.264 367.451 112.082 369.238 113.717C371.058 115.321 371.968 117.774 371.968 121.077V136.759H368.653ZM359.829 137C357.912 137 356.238 136.695 354.808 136.086C353.41 135.445 352.338 134.579 351.59 133.488C350.843 132.366 350.469 131.083 350.469 129.64C350.469 128.325 350.778 127.138 351.395 126.08C352.045 124.99 353.085 124.124 354.515 123.482C355.978 122.809 357.928 122.472 360.366 122.472H369.19V125.022H360.463C357.993 125.022 356.271 125.455 355.296 126.321C354.353 127.187 353.882 128.261 353.882 129.544C353.882 130.987 354.45 132.141 355.588 133.007C356.726 133.873 358.318 134.306 360.366 134.306C362.316 134.306 363.989 133.873 365.387 133.007C366.817 132.109 367.857 130.827 368.507 129.159L369.287 131.516C368.637 133.184 367.5 134.515 365.874 135.509C364.282 136.503 362.267 137 359.829 137Z" fill="black"/>
<path d="M381.37 136.759V111.504H384.685V118.383L384.344 117.181C385.059 115.257 386.261 113.797 387.951 112.803C389.641 111.777 391.737 111.264 394.24 111.264V114.583C394.11 114.583 393.98 114.583 393.85 114.583C393.72 114.551 393.59 114.535 393.46 114.535C390.762 114.535 388.65 115.353 387.122 116.988C385.595 118.592 384.831 120.885 384.831 123.867V136.759H381.37Z" fill="black"/>
<path d="M400.802 137C400.087 137 399.469 136.743 398.949 136.23C398.462 135.717 398.218 135.092 398.218 134.354C398.218 133.585 398.462 132.959 398.949 132.478C399.469 131.997 400.087 131.757 400.802 131.757C401.517 131.757 402.118 131.997 402.606 132.478C403.126 132.959 403.386 133.585 403.386 134.354C403.386 135.092 403.126 135.717 402.606 136.23C402.118 136.743 401.517 137 400.802 137Z" fill="black"/>
<path d="M420.705 137C418.17 137 415.895 136.455 413.88 135.364C411.898 134.242 410.338 132.719 409.2 130.794C408.063 128.838 407.494 126.609 407.494 124.108C407.494 121.574 408.063 119.345 409.2 117.421C410.338 115.497 411.898 113.99 413.88 112.899C415.895 111.809 418.17 111.264 420.705 111.264C422.883 111.264 424.849 111.681 426.604 112.515C428.359 113.348 429.741 114.599 430.748 116.267L428.164 117.999C427.287 116.716 426.198 115.77 424.898 115.16C423.598 114.551 422.184 114.246 420.657 114.246C418.837 114.246 417.195 114.663 415.733 115.497C414.27 116.299 413.117 117.437 412.271 118.913C411.426 120.388 411.004 122.12 411.004 124.108C411.004 126.096 411.426 127.828 412.271 129.303C413.117 130.778 414.27 131.933 415.733 132.767C417.195 133.569 418.837 133.969 420.657 133.969C422.184 133.969 423.598 133.665 424.898 133.055C426.198 132.446 427.287 131.516 428.164 130.265L430.748 131.997C429.741 133.633 428.359 134.883 426.604 135.749C424.849 136.583 422.883 137 420.705 137Z" fill="black"/>
<path d="M447.552 137C445.082 137 442.856 136.455 440.873 135.364C438.923 134.242 437.379 132.719 436.242 130.794C435.104 128.838 434.536 126.609 434.536 124.108C434.536 121.574 435.104 119.345 436.242 117.421C437.379 115.497 438.923 113.99 440.873 112.899C442.823 111.809 445.05 111.264 447.552 111.264C450.087 111.264 452.33 111.809 454.28 112.899C456.262 113.99 457.806 115.497 458.911 117.421C460.049 119.345 460.617 121.574 460.617 124.108C460.617 126.609 460.049 128.838 458.911 130.794C457.806 132.719 456.262 134.242 454.28 135.364C452.297 136.455 450.055 137 447.552 137ZM447.552 133.969C449.405 133.969 451.046 133.569 452.476 132.767C453.906 131.933 455.027 130.778 455.84 129.303C456.685 127.796 457.107 126.064 457.107 124.108C457.107 122.12 456.685 120.388 455.84 118.913C455.027 117.437 453.906 116.299 452.476 115.497C451.046 114.663 449.421 114.246 447.601 114.246C445.781 114.246 444.156 114.663 442.726 115.497C441.296 116.299 440.158 117.437 439.313 118.913C438.468 120.388 438.046 122.12 438.046 124.108C438.046 126.064 438.468 127.796 439.313 129.303C440.158 130.778 441.296 131.933 442.726 132.767C444.156 133.569 445.765 133.969 447.552 133.969Z" fill="black"/>
<path d="M499.665 111.264C501.745 111.264 503.549 111.665 505.076 112.466C506.636 113.236 507.839 114.423 508.684 116.026C509.561 117.63 510 119.65 510 122.087V136.759H506.539V122.424C506.539 119.762 505.889 117.758 504.589 116.411C503.321 115.032 501.517 114.343 499.177 114.343C497.422 114.343 495.895 114.711 494.595 115.449C493.327 116.155 492.336 117.197 491.621 118.576C490.938 119.923 490.597 121.558 490.597 123.482V136.759H487.136V122.424C487.136 119.762 486.486 117.758 485.186 116.411C483.886 115.032 482.066 114.343 479.726 114.343C478.003 114.343 476.492 114.711 475.192 115.449C473.892 116.155 472.884 117.197 472.169 118.576C471.487 119.923 471.145 121.558 471.145 123.482V136.759H467.684V111.504H470.999V118.335L470.463 117.133C471.243 115.305 472.494 113.878 474.217 112.851C475.972 111.793 478.036 111.264 480.408 111.264C482.911 111.264 485.039 111.889 486.794 113.14C488.55 114.359 489.687 116.203 490.207 118.672L488.842 118.143C489.59 116.09 490.906 114.439 492.791 113.188C494.708 111.905 497 111.264 499.665 111.264Z" fill="black"/>
<path d="M188.698 85.3443V0H212.487L246.821 55.7176H234.313L267.666 0H291.455L291.7 85.3443H265.336L265.091 39.5022H269.26L246.453 77.6633H233.7L209.912 39.5022H215.062V85.3443H188.698Z" fill="black"/>
<path d="M305.691 85.3443V0H347.996C357.56 0 365.98 1.74753 373.256 5.24258C380.531 8.65635 386.213 13.5332 390.3 19.873C394.388 26.2129 396.431 33.7719 396.431 42.5502C396.431 51.4098 394.388 59.0501 390.3 65.4712C386.213 71.8111 380.531 76.7286 373.256 80.2236C365.98 83.6374 357.56 85.3443 347.996 85.3443H305.691ZM334.63 62.9109H346.77C350.857 62.9109 354.413 62.1387 357.438 60.5944C360.544 59.0501 362.956 56.7743 364.672 53.7669C366.389 50.6782 367.247 46.9393 367.247 42.5502C367.247 38.2424 366.389 34.5847 364.672 31.5774C362.956 28.57 360.544 26.2942 357.438 24.7498C354.413 23.2055 350.857 22.4333 346.77 22.4333H334.63V62.9109Z" fill="black"/>
<path d="M406.998 85.3443V0H430.786L465.121 55.7176H452.613L485.966 0H509.755L510 85.3443H483.636L483.391 39.5022H487.56L464.753 77.6633H452L428.211 39.5022H433.362V85.3443H406.998Z" fill="black"/>
<path d="M80.9977 0.138168C64.8658 0.353783 57.8906 0.692596 56.4157 1.33943C55.1251 1.92466 53.2508 3.40314 53.0664 4.01917C52.9128 4.57359 50.4238 24.687 50.4238 25.4879C50.4238 25.8575 50.9155 25.9499 52.6669 25.9499C53.8653 25.9499 57.6141 26.1655 60.9941 26.4427L67.0781 26.9663L74.2069 30.4161C83.3637 34.9131 87.727 36.792 92.797 38.4553C97.5905 40.057 99.8644 41.1042 100.971 42.2747L101.739 43.0756L100.51 44.092C98.8504 45.4165 98.2665 46.6485 98.2973 48.8046C98.328 50.8375 99.5878 54.2565 101.309 56.9979C102.814 59.4004 105.488 62.9118 105.795 62.9118C105.918 62.9118 106.041 59 106.041 54.1949C106.041 47.5726 106.133 45.3549 106.44 44.9236C106.84 44.3692 109.421 43.8148 109.421 44.3076C109.421 44.4308 109.113 45.1701 108.745 45.9401C108.069 47.3262 108.038 47.6342 108.038 56.505V65.6531L108.96 66.6079C109.482 67.1624 110.926 68.4252 112.186 69.4725L114.491 71.3206L114.644 57.7987C114.736 50.3755 114.859 44.246 114.89 44.2152C114.921 44.1844 115.167 43.938 115.443 43.6916C115.843 43.2604 118.332 42.9523 118.332 43.322C118.332 43.3836 118.117 43.938 117.871 44.5232C117.133 46.3097 116.795 51.9156 116.795 62.4805C116.795 71.6594 116.826 72.3986 117.348 72.5526C117.625 72.645 119.161 73.0455 120.728 73.4767L123.555 74.2775V59.0924C123.555 41.9359 123.402 42.8907 125.952 42.8907H127.212L126.782 43.938C125.921 45.9709 125.675 50.5911 125.768 62.7577L125.86 74.7704L128.933 75.448C130.592 75.8176 132.098 76.0332 132.22 75.9716C132.343 75.8792 132.466 68.5792 132.466 59.7084C132.466 44.4924 132.497 43.5684 133.019 43.1063C133.572 42.5827 135.846 42.3671 135.846 42.7983C135.846 42.9523 135.631 43.6608 135.355 44.4308C134.679 46.4021 134.279 56.2894 134.494 65.9919C134.617 71.2898 134.586 74.5547 134.371 75.294L134.064 76.4336L135.631 76.7417C137.29 77.0805 140.793 77.6965 140.978 77.6965C141.039 77.6965 141.07 70.0577 141.07 60.7556V43.784L141.838 43.0447C142.299 42.5519 142.944 42.2747 143.497 42.2747C144.604 42.2747 144.911 42.6751 144.45 43.5068C143.682 44.9544 143.436 48.3734 143.221 62.1417C143.098 70.0885 142.914 76.9265 142.791 77.2653C142.545 77.9429 142.852 78.0353 148.844 78.7746L149.981 78.9286V61.5257C149.981 44.5232 149.981 44.1228 150.595 43.5068C151.241 42.8599 153.361 42.6135 153.361 43.1988C153.361 43.3528 153.146 44.2768 152.839 45.2625C152.439 46.7717 152.316 49.4515 152.132 61.8337C152.009 71.7518 151.825 76.9573 151.579 77.6657C151.394 78.2509 151.302 78.8054 151.394 78.8978C151.487 78.9902 153.207 79.1442 155.235 79.2058L158.892 79.2982V61.7413V44.1536L159.568 43.6916C160.305 43.168 162.272 43.0139 162.272 43.476C162.272 43.63 162.118 44.1536 161.965 44.6156C161.227 46.5253 161.012 50.5295 161.012 62.4189C161.043 72.491 160.951 75.4172 160.582 76.9881C160.336 78.0969 160.121 79.021 160.121 79.1134C160.121 79.2058 161.75 79.2058 163.747 79.175L167.342 79.0826V60.386V41.6895L165.959 41.5355C158.431 40.6114 147.707 40.1186 135.385 40.1186C121.128 40.1186 109.636 40.981 104.535 42.4595L102.876 42.9215L101.769 41.8743C100.264 40.4266 98.3895 39.5334 92.6434 37.5313C89.9701 36.6072 86.037 35.0671 83.9168 34.1123C77.8328 31.371 70.3967 27.7056 70.3967 27.49C70.3967 27.3668 71.6873 27.1819 73.2544 27.0895C76.7266 26.8431 78.3244 26.3811 82.995 24.2558C87.4812 22.1921 90.9227 21.1756 94.8558 20.7136C99.6493 20.19 111.479 19.8204 131.022 19.6048C140.947 19.4816 149.059 19.2967 149.059 19.2043C149.059 19.1119 145.157 16.4938 140.363 13.4444L131.667 7.83856L123.217 6.42169C107.024 3.71115 102.2 2.81791 101.892 2.47909C101.493 2.07867 136.43 2.35588 145.618 2.84871C149.182 3.03352 152.408 3.15672 152.746 3.09512C153.361 3.00272 153.33 2.97192 152.654 2.14027C152.009 1.33943 151.794 1.27783 148.137 1.00062C136.645 0.168976 106.84 -0.231445 80.9977 0.138168Z" fill="black"/>
<path d="M47.0445 6.73078C44.7706 9.34891 41.4213 15.4476 39.0553 21.2383C38.1642 23.4252 38.072 23.9489 38.3179 24.9345L38.5944 26.105L40.9297 26.1974C42.5582 26.259 43.3572 26.1666 43.5723 25.8893C43.9717 25.3965 48.3657 6.39196 48.2121 5.89914C48.1507 5.71433 47.6283 6.08394 47.0445 6.73078Z" fill="black"/>
<path d="M18.9287 23.3317C19.2668 25.2414 20.0349 26.3502 21.5406 27.0895C23.0462 27.8287 26.8564 28.4139 30.2057 28.4139H32.2952L33.0941 29.9848C34.2003 32.2025 35.1221 33.0342 36.4127 33.0342C36.9965 33.0342 37.5803 32.8802 37.6725 32.7261C37.7647 32.5413 37.6418 32.4181 37.3652 32.4181C36.382 32.4181 34.8763 30.4776 34.1696 28.3215C33.7394 27.0587 33.217 26.1346 32.8483 25.919C32.5103 25.7342 30.1136 25.457 27.5324 25.3338C22.3395 25.0258 21.1411 24.6869 19.6662 23.1161L18.7444 22.0996L18.9287 23.3317Z" fill="black"/>
<path d="M47.597 39.3175C44.0941 40.2724 43.5717 41.3504 43.9712 46.6483C44.5857 54.7183 46.3064 57.8292 50.4547 58.5685C57.6756 59.8005 73.6846 59.9854 84.5007 58.9381C88.1266 58.5685 91.1686 58.2297 91.23 58.1373C91.4451 57.9216 89.2942 54.8415 87.1126 52.131C85.1153 49.6668 81.8889 46.5251 82.2269 47.3567C82.8414 48.8968 82.7493 51.3917 82.0732 52.9934C80.8441 55.8579 78.3552 57.4596 75.1596 57.4596C71.4415 57.4904 68.4302 54.8107 67.785 50.9913C67.324 48.1576 69.3213 44.4614 71.9332 43.3217C72.7321 42.9521 73.0394 42.7057 72.7935 42.5517C72.2712 42.2745 63.6982 40.1183 63.0837 40.1183C62.7764 40.1183 63.0222 40.5496 63.8826 41.3812C67.447 44.9234 67.6313 50.3137 64.3435 53.979C62.3462 56.2276 60.4718 57.0592 57.4913 57.0592C53.7118 57.0592 50.977 55.3651 49.287 51.9769C46.9824 47.4799 48.8568 42.0896 53.5581 39.6255L54.8794 38.9171H51.9603C50.3625 38.9171 48.3959 39.1019 47.597 39.3175Z" fill="black"/>
<path d="M53.9887 45.6939C52.9444 46.9259 52.9137 48.4044 53.958 49.5749L54.7565 50.4373L54.1115 49.3592C53.313 47.9424 53.3437 47.2339 54.2651 45.8479C55.1865 44.4926 55.0637 44.4002 53.9887 45.6939Z" fill="black"/>
<path d="M20.4652 47.2339C18.2836 47.3879 15.641 47.6035 14.627 47.7267L12.8141 47.9731L13.7359 49.0204L14.6885 50.0676L20.3423 48.7432C28.5466 46.8335 28.5466 46.7103 20.4652 47.2339Z" fill="black"/>
<path d="M71.3805 48.4966C70.8584 49.0202 70.9198 51.0839 71.5034 51.6384C72.1791 52.3468 72.3634 52.2544 71.8105 51.4536C71.2269 50.6219 71.1655 49.0202 71.6876 48.4966C71.9026 48.281 71.9948 48.127 71.9026 48.127C71.8105 48.127 71.5955 48.281 71.3805 48.4966Z" fill="black"/>
<path d="M24.2138 61.6181C20.9566 65.2219 18.8057 83.2408 19.3895 102.492C19.5432 107.05 19.6046 110.839 19.5432 110.901C19.5125 110.962 17.3001 110.623 14.6575 110.161C10.3864 109.391 9.83329 109.237 9.71038 108.683C9.64892 108.313 9.31092 103.601 8.94219 98.1795C7.71309 79.329 6.72981 72.6142 4.91689 70.6429L4.27161 69.9653L3.53415 70.6429C1.38323 72.6758 -0.0302363 82.748 0.000491187 95.9618C0.000491187 106.835 0.676496 113.919 2.18214 118.724C3.28833 122.328 2.45869 122.051 12.3222 122.051H20.8952L21.2332 123.806C22.3087 129.258 23.8143 133.016 25.0434 133.293C25.6272 133.417 36.6584 134.125 51.3461 134.987C76.5427 136.435 118.67 137.359 138.397 136.866C152.47 136.497 169.309 135.696 170.292 135.357C170.692 135.203 166.39 133.509 156.127 129.813L141.378 124.515H101.739C73.4392 124.515 62.07 124.422 61.9164 124.176C61.8242 123.991 61.8857 122.544 62.1008 120.942C62.3158 119.34 62.408 117.954 62.3158 117.862C62.2237 117.769 56.4776 117.923 49.5332 118.17C35.7058 118.724 35.5522 118.724 34.2002 116.999C33.8622 116.537 33.4013 115.428 33.2169 114.566C33.0633 113.673 32.418 106.311 31.8342 98.1795C29.9905 72.9839 28.7922 64.4826 26.7334 61.8645C25.996 60.9405 24.9205 60.8172 24.2138 61.6181ZM25.8116 70.5505C26.3032 71.4746 27.0407 76.0332 27.4401 80.7767C27.9625 86.8754 27.9625 109.453 27.4401 115.274C26.7027 123.314 25.8423 126.64 24.7361 125.747C21.6941 123.19 21.3561 77.3577 24.3367 70.797C24.7669 69.8729 25.3814 69.7497 25.8116 70.5505ZM4.60962 79.1442C6.05381 84.5036 6.02308 108.159 4.57889 113.95C4.21016 115.428 3.56488 115.675 3.10397 114.535C1.59832 110.562 1.59832 82.7172 3.10397 78.7438C3.53415 77.6349 4.27161 77.8505 4.60962 79.1442Z" fill="black"/>
<path d="M53.036 77.4191C51.684 77.7579 50.332 78.8976 49.8404 80.1296C49.2566 81.5773 45.5078 105.387 45.5078 107.635C45.5078 110.469 45.9073 110.592 55.2484 110.839C66.2181 111.147 73.9307 110.377 77.618 108.683C80.0148 107.605 81.7355 105.079 86.0374 96.3313C91.5991 85.0579 92.9511 81.1769 91.7834 79.8832C90.7694 78.7436 86.7134 78.3124 71.0116 77.6963C57.3379 77.1727 54.2959 77.1111 53.036 77.4191ZM88.3727 82.5322C88.9872 82.9018 88.9872 82.9018 88.3727 83.1482C87.6045 83.4562 53.2204 83.487 52.4522 83.1482C51.3768 82.717 52.2679 82.5014 55.8937 82.2858C61.7934 81.9469 87.6659 82.1625 88.3727 82.5322ZM86.4061 87.4604C86.6519 87.7068 86.6212 87.8608 86.3447 88.0148C85.7916 88.3537 60.9023 88.5693 56.1703 88.2613C54.0193 88.1381 52.2371 87.8608 52.1757 87.7068C52.0528 87.1832 57.7374 87.0292 72.3022 87.06C81.7663 87.0908 86.1603 87.214 86.4061 87.4604ZM83.6406 92.3887C84.3166 93.0663 81.7663 93.2203 67.7852 93.2203C54.4495 93.2203 50.67 93.0355 51.2231 92.4811C51.6533 92.0499 54.9412 91.9574 69.5367 91.9882C79.6461 92.019 83.3641 92.1115 83.6406 92.3887ZM81.0288 97.1629C81.1517 97.3169 81.1517 97.5017 81.0288 97.6249C80.7215 97.9329 54.9412 98.1486 52.36 97.8713C50.0555 97.6249 49.8404 97.1937 51.8991 97.0089C54.4495 96.7933 80.783 96.9473 81.0288 97.1629ZM78.5706 102.091C78.6935 102.245 78.6935 102.43 78.5706 102.553C78.2633 102.892 56.9999 103.077 53.0053 102.8C49.994 102.584 48.9493 102.245 50.5164 101.937C51.684 101.691 78.3248 101.876 78.5706 102.091ZM75.6208 106.958C76.6348 107.605 74.3917 107.728 62.2543 107.728C50.4242 107.728 46.9827 107.512 49.3487 106.958C50.7315 106.619 75.0677 106.619 75.6208 106.958Z" fill="black"/>
<path d="M115.106 90.3252C111.173 90.4792 111.081 90.51 108.991 91.6496C107.793 92.2965 105.949 93.4977 104.843 94.2678C102.231 96.0851 95.8093 102.553 94.1193 105.018L92.798 106.927L94.5802 107.851C96.8233 108.96 100.91 110.223 103.737 110.654C105.181 110.87 116.735 110.962 138.305 110.901L170.692 110.808L169.064 109.484L167.404 108.19H163.656C160.552 108.19 135.571 106.28 128.934 105.541C124.355 105.018 129.61 104.833 149.49 104.833L170.631 104.802L169.156 103.57L167.65 102.338H164.577C161.167 102.338 129.579 99.7196 127.858 99.2884C127.213 99.1344 135.571 98.9804 148.753 98.9804L170.723 98.9188L169.187 97.5635L167.65 96.1775H164.024C162.058 96.1775 153.055 95.5614 144.082 94.7914C135.079 94.0214 127.52 93.3745 127.274 93.3745C126.998 93.3437 127.397 93.2205 128.165 93.0973C128.934 92.9433 138.736 92.8201 149.951 92.8201C161.167 92.7893 170.416 92.7585 170.446 92.6969C170.508 92.6353 169.955 92.0809 169.187 91.4648L167.835 90.3252L143.468 90.2328C130.07 90.202 117.319 90.2328 115.106 90.3252Z" fill="black"/>
</svg>
