<svg width="44" height="44" viewBox="0 0 44 44" fill="none" xmlns="http://www.w3.org/2000/svg">
<path d="M5.5 22C5.5 23.4587 6.07946 24.8576 7.11091 25.8891C8.14236 26.9205 9.54131 27.5 11 27.5C12.4587 27.5 13.8576 26.9205 14.8891 25.8891C15.9205 24.8576 16.5 23.4587 16.5 22C16.5 20.5413 15.9205 19.1424 14.8891 18.1109C13.8576 17.0795 12.4587 16.5 11 16.5C9.54131 16.5 8.14236 17.0795 7.11091 18.1109C6.07946 19.1424 5.5 20.5413 5.5 22Z" stroke="#151A1A" stroke-width="2.75" stroke-linecap="round" stroke-linejoin="round"/>
<path d="M27.5 33C27.5 34.4587 28.0795 35.8576 29.1109 36.8891C30.1424 37.9205 31.5413 38.5 33 38.5C34.4587 38.5 35.8576 37.9205 36.8891 36.8891C37.9205 35.8576 38.5 34.4587 38.5 33C38.5 31.5413 37.9205 30.1424 36.8891 29.1109C35.8576 28.0795 34.4587 27.5 33 27.5C31.5413 27.5 30.1424 28.0795 29.1109 29.1109C28.0795 30.1424 27.5 31.5413 27.5 33Z" stroke="#151A1A" stroke-width="2.75" stroke-linecap="round" stroke-linejoin="round"/>
<path d="M27.5 11C27.5 12.4587 28.0795 13.8576 29.1109 14.8891C30.1424 15.9205 31.5413 16.5 33 16.5C34.4587 16.5 35.8576 15.9205 36.8891 14.8891C37.9205 13.8576 38.5 12.4587 38.5 11C38.5 9.54131 37.9205 8.14236 36.8891 7.11091C35.8576 6.07946 34.4587 5.5 33 5.5C31.5413 5.5 30.1424 6.07946 29.1109 7.11091C28.0795 8.14236 27.5 9.54131 27.5 11Z" stroke="#151A1A" stroke-width="2.75" stroke-linecap="round" stroke-linejoin="round"/>
<path d="M15.95 19.6167L28.05 13.3834" stroke="#151A1A" stroke-width="2.75" stroke-linecap="round" stroke-linejoin="round"/>
<path d="M15.95 24.3834L28.05 30.6167" stroke="#151A1A" stroke-width="2.75" stroke-linecap="round" stroke-linejoin="round"/>
</svg>
