<?xml version="1.0" standalone="no"?>
<!DOCTYPE svg PUBLIC "-//W3C//DTD SVG 20010904//EN"
 "http://www.w3.org/TR/2001/REC-SVG-20010904/DTD/svg10.dtd">
<svg version="1.0" xmlns="http://www.w3.org/2000/svg"
 width="700.000000pt" height="700.000000pt" viewBox="0 0 700.000000 700.000000"
 preserveAspectRatio="xMidYMid meet">
<metadata>
Created by potrace 1.14, written by Peter Selinger 2001-2017
</metadata>
<g transform="translate(0.000000,700.000000) scale(0.100000,-0.100000)"
fill="#000000" stroke="none">
<path d="M3279 6645 c-3 -2 -35 -6 -73 -10 -627 -52 -1268 -326 -1767 -755
-35 -30 -117 -109 -182 -174 -396 -400 -683 -911 -816 -1457 -70 -287 -90
-471 -86 -794 2 -126 6 -243 9 -260 3 -16 10 -68 16 -115 11 -93 16 -120 30
-195 6 -27 12 -60 15 -72 7 -38 53 -203 78 -283 102 -320 293 -679 507 -955
438 -564 1057 -967 1744 -1134 116 -29 272 -58 346 -66 19 -2 71 -7 115 -12
94 -9 503 -9 590 1 425 47 779 152 1145 343 592 307 1072 795 1370 1395 177
357 276 703 318 1113 10 96 9 482 -1 580 -13 121 -29 228 -47 315 -5 25 -12
56 -14 70 -17 103 -94 346 -163 514 -111 273 -321 623 -492 819 -172 198 -305
327 -471 458 -289 229 -625 409 -980 525 -94 31 -231 69 -285 80 -182 36 -224
43 -301 50 -32 3 -70 8 -84 11 -30 6 -516 14 -521 8z m521 -289 c19 -3 55 -8
80 -11 25 -3 71 -10 102 -16 32 -5 70 -12 85 -15 141 -25 403 -108 573 -181
393 -170 714 -407 1035 -763 171 -190 381 -534 489 -803 57 -141 127 -376 150
-502 42 -225 54 -367 51 -600 -2 -115 -6 -235 -9 -265 -56 -481 -216 -915
-486 -1315 -94 -139 -213 -281 -359 -426 -374 -370 -826 -623 -1340 -748 -126
-31 -136 -33 -271 -51 -47 -6 -98 -14 -115 -17 -52 -9 -467 -11 -535 -3 -36 5
-92 11 -125 15 -302 32 -705 165 -1006 331 -76 42 -267 161 -279 174 -3 3 -50
39 -104 80 -90 68 -347 311 -421 400 -70 83 -195 256 -257 357 -96 155 -123
208 -223 438 -86 198 -165 523 -193 795 -9 93 -8 460 2 555 46 449 202 894
440 1260 137 209 214 305 396 485 162 162 267 248 445 367 379 252 861 422
1300 459 38 3 71 7 73 9 6 5 463 -3 502 -9z"/>
<path d="M3260 5939 c-141 -18 -158 -20 -270 -44 -14 -2 -38 -7 -55 -11 -68
-13 -294 -88 -394 -131 -189 -80 -366 -184 -543 -320 -118 -90 -307 -275 -393
-383 -32 -41 -62 -77 -65 -80 -24 -18 -181 -277 -234 -385 -78 -157 -156 -365
-181 -481 -65 -302 -73 -380 -70 -634 2 -118 5 -226 8 -240 3 -14 8 -47 12
-75 22 -171 103 -467 165 -600 5 -11 29 -63 53 -115 52 -112 135 -252 220
-370 34 -47 63 -87 66 -90 4 -3 28 -32 56 -65 239 -290 599 -548 969 -694 158
-63 405 -129 550 -146 23 -3 73 -9 111 -14 88 -10 381 -11 460 -1 33 5 85 11
115 14 30 4 99 16 155 27 772 160 1424 687 1747 1414 51 114 111 295 143 428
49 207 63 352 60 597 -2 113 -5 216 -8 230 -3 14 -8 47 -12 74 -41 325 -179
693 -369 986 -183 283 -420 521 -710 714 -221 148 -564 297 -781 340 -5 2 -35
8 -65 14 -174 36 -252 44 -465 47 -115 1 -239 -2 -275 -6z m505 -284 c22 -3
63 -10 90 -15 28 -6 67 -12 87 -15 80 -13 193 -51 190 -66 -2 -7 -101 -182
-220 -389 -118 -206 -222 -386 -229 -400 -8 -14 -44 -76 -81 -139 -57 -98 -71
-115 -95 -118 -34 -5 -3 -55 -405 644 -128 222 -232 407 -232 412 0 12 246 69
370 85 104 14 438 14 525 1z m-1115 -292 c30 -53 67 -117 81 -142 14 -25 127
-221 251 -436 123 -214 239 -416 257 -448 18 -31 48 -69 66 -83 33 -25 37 -25
186 -25 127 1 158 4 183 19 25 14 102 141 373 612 188 327 347 596 352 598 23
8 341 -170 341 -190 0 -4 -50 -94 -111 -200 -61 -106 -121 -211 -133 -233 -13
-22 -57 -98 -98 -170 -293 -505 -340 -591 -342 -628 -2 -30 9 -57 56 -140 70
-120 101 -162 131 -179 17 -10 175 -13 710 -14 378 0 690 -4 694 -7 3 -4 8
-71 9 -149 2 -79 5 -167 6 -195 3 -50 2 -53 -22 -54 -14 0 -326 -1 -695 -2
-602 -2 -673 -4 -700 -19 -40 -21 -175 -243 -182 -298 -5 -34 1 -51 42 -122
26 -46 59 -103 73 -128 14 -25 72 -126 130 -225 58 -99 116 -200 130 -225 14
-25 33 -57 43 -72 11 -14 19 -28 19 -31 0 -3 19 -38 43 -79 24 -40 56 -95 71
-123 16 -27 53 -92 84 -144 l55 -94 -29 -21 c-78 -57 -293 -176 -318 -176 -11
0 -107 156 -234 381 -10 19 -83 144 -160 278 -78 134 -142 248 -142 252 0 5
-4 9 -10 9 -5 0 -10 4 -10 9 0 14 -129 233 -151 257 -30 32 -73 40 -219 39
-160 -1 -188 -12 -231 -92 -14 -26 -56 -99 -93 -161 -36 -62 -77 -132 -90
-155 -13 -23 -53 -93 -90 -156 -36 -62 -66 -116 -66 -119 0 -3 -6 -13 -14 -21
-8 -9 -27 -40 -42 -69 -16 -29 -33 -61 -39 -70 -5 -10 -58 -101 -118 -204
l-108 -186 -62 30 c-88 42 -278 159 -284 175 -3 7 5 26 16 42 12 16 21 31 21
34 0 2 23 44 52 93 28 49 65 114 83 144 17 30 125 217 240 415 239 413 244
422 260 453 7 13 11 39 9 59 -4 49 -134 264 -177 295 l-32 23 -670 2 c-369 1
-680 2 -691 2 -21 1 -22 4 -21 201 l0 200 31 1 c17 0 330 1 696 2 527 2 670 5
688 15 47 27 182 261 182 316 0 29 -44 114 -231 439 -128 221 -244 425 -260
452 -15 28 -65 115 -112 195 -47 80 -83 149 -80 153 7 12 94 66 173 109 125
68 145 78 160 78 9 0 38 -41 70 -97z m2575 -548 c85 -114 171 -254 231 -379
51 -106 135 -340 149 -417 l6 -35 -607 0 -607 1 -14 22 c-14 21 -12 28 22 90
21 37 46 79 55 93 10 14 32 52 49 85 18 33 86 152 151 265 66 113 163 283 217
378 l98 173 96 -100 c53 -54 122 -134 154 -176z m-3168 215 c29 -51 89 -156
141 -245 19 -33 42 -74 52 -91 10 -16 94 -163 187 -325 217 -375 197 -336 180
-362 l-14 -22 -607 -1 -608 0 7 35 c13 73 96 304 148 414 59 125 145 266 231
381 70 92 235 268 249 263 5 -1 21 -23 34 -47z m560 -2037 c17 -25 52 40 -435
-805 l-159 -277 -85 87 c-194 200 -354 446 -451 698 -36 90 -97 286 -97 308 0
10 144 12 606 12 l607 -1 14 -22z m2993 13 c0 -25 -60 -219 -95 -307 -106
-267 -283 -536 -479 -729 -35 -33 -59 -51 -65 -45 -5 6 -77 129 -161 275 -84
146 -217 379 -297 517 -139 242 -145 254 -130 276 l15 23 606 0 c420 0 606 -3
606 -10z m-2076 -536 c7 -8 25 -35 38 -60 14 -25 101 -178 195 -340 321 -556
363 -630 363 -639 0 -10 -232 -67 -310 -76 -30 -4 -66 -9 -80 -12 -59 -12
-382 -10 -487 2 -147 18 -365 65 -385 84 -4 4 11 38 33 76 23 39 54 93 69 120
15 28 89 156 164 285 75 129 180 312 233 405 90 158 99 171 125 170 15 0 34
-7 42 -15z"/>
<path d="M3383 3976 c-177 -43 -325 -196 -362 -374 -66 -319 193 -615 517
-589 269 22 467 250 449 517 -20 307 -306 518 -604 446z m202 -284 c97 -47
143 -146 115 -247 -42 -148 -222 -203 -337 -102 -114 100 -86 285 52 349 47
21 126 22 170 0z"/>
</g>
</svg>
