<svg width="1370" height="80" viewBox="0 0 1370 80" fill="none" xmlns="http://www.w3.org/2000/svg">
    <g opacity="0.7">
        <g opacity="0.2" clip-path="url(#clip0_1_40)">
            <path d="M39.9967 60.4834C62.0867 60.4834 80 51.3134 80 40.0034C80 28.6867 62.0867 19.5167 39.9967 19.5167C17.9133 19.5167 0 28.6867 0 40.0034C0 51.3134 17.9133 60.4834 39.9967 60.4834ZM47.53 50.4334C46.8633 51.9801 45.7133 55.2801 43.0767 56.6001C42.2767 56.9967 41.2867 57.1801 40.41 57.2167H40C32.62 57.2167 25.7467 56.1834 19.9933 54.4367L19.7733 54.3534C19.24 54.1767 18.9733 53.9301 18.9733 53.6267C18.9733 53.3634 19.1167 53.1601 19.3033 52.9767L19.6667 52.6534C21 51.5467 24.9933 48.6534 32.5267 45.7634C35.17 44.7601 38.48 43.5001 41.9433 42.7634C43.97 42.3434 51.5067 41.1867 47.53 50.4334ZM67.7333 29.7867C67.8767 29.5401 68.0667 29.3301 68.41 29.3134C68.5967 29.2934 68.85 29.3367 69.2367 29.5801C73.9333 32.4701 76.72 36.0867 76.72 39.9967C76.72 47.0567 67.64 53.1301 54.6533 55.7801C53.8267 55.9467 53.2667 55.9401 53.0833 55.7301C52.95 55.6034 52.9167 55.3767 53.0833 55.0967C53.1809 54.9234 53.2971 54.7613 53.43 54.6134C60.4967 46.2801 65.8833 33.9834 67.4133 30.4367C67.53 30.1901 67.64 29.9467 67.7333 29.7867ZM32.59 29.5234C33.2567 27.9801 34.4067 24.6767 37.04 23.3701C37.84 22.9701 38.83 22.7767 39.7067 22.7534C39.91 22.7467 40.0533 22.7534 40.1067 22.7534C47.4967 22.7534 54.36 23.7734 60.12 25.5301C60.1633 25.5501 60.2967 25.5967 60.34 25.6134C60.8733 25.7934 61.14 26.0367 61.14 26.3401C61.14 26.6034 61 26.7967 60.8133 26.9834C60.6953 27.0947 60.573 27.2015 60.4467 27.3034C59.1233 28.4201 55.12 31.3067 47.5867 34.1967C44.9367 35.2101 41.6333 36.4601 38.18 37.1934C36.1467 37.6267 28.6133 38.7701 32.59 29.5234ZM25.3333 24.2134C26.1667 24.0534 26.7167 24.0534 26.92 24.2634C27.0367 24.3967 27.07 24.6167 26.9133 24.8967C26.8137 25.0656 26.6976 25.2241 26.5667 25.3701C19.5 33.7134 14.11 46.0001 12.5733 49.5567C12.4769 49.7783 12.3701 49.9952 12.2533 50.2067C12.12 50.4501 11.9233 50.6601 11.5867 50.6801C11.4 50.6967 11.1367 50.6434 10.75 50.4101C6.05667 47.5201 3.26667 43.9067 3.26667 39.9967C3.26667 32.9367 12.3467 26.8634 25.3333 24.2134Z" fill="white"/>
        </g>
        <g opacity="0.2" clip-path="url(#clip1_1_40)">
            <path d="M206.41 47.25C206.41 47.4033 206.46 47.49 206.547 47.49C206.617 47.4805 206.684 47.4529 206.74 47.41L231.673 31.23C232.095 30.935 232.599 30.7831 233.113 30.7967H238.593C239.433 30.7967 240 31.3567 240 32.1967V42.66C240 43.9267 239.72 44.66 238.6 45.33L231.953 49.33C231.887 49.3759 231.81 49.4035 231.73 49.41C231.65 49.41 231.57 49.3467 231.57 49.1167V36.9067C231.57 36.7633 231.53 36.67 231.433 36.67C231.363 36.6779 231.296 36.7056 231.24 36.75L213.02 48.5867C212.608 48.8674 212.119 49.0152 211.62 49.01H199.54C198.693 49.01 198.133 48.45 198.133 47.6033V32.5233C198.133 32.4133 198.083 32.31 197.987 32.31C197.917 32.3193 197.852 32.3469 197.797 32.39L185.773 39.6C185.653 39.68 185.62 39.7367 185.62 39.7933C185.62 39.84 185.647 39.89 185.727 39.9767L194.317 48.56C194.43 48.6733 194.51 48.76 194.51 48.8567C194.51 48.9367 194.38 49 194.23 49H186.467C185.857 49 185.387 48.9133 185.057 48.5833L179.85 43.3833C179.83 43.3597 179.806 43.3404 179.778 43.3266C179.751 43.3128 179.721 43.3049 179.69 43.3033C179.633 43.3065 179.578 43.3237 179.53 43.3533L170.83 48.5867C170.414 48.8661 169.921 49.0083 169.42 48.9933H161.417C160.56 49 160 48.4333 160 47.5967V37.33C160 36.0633 160.28 35.33 161.407 34.6633L168.1 30.64C168.152 30.607 168.212 30.5886 168.273 30.5867C168.38 30.5867 168.433 30.6867 168.433 30.92V44.6667C168.433 44.81 168.467 44.8767 168.57 44.8767C168.642 44.8655 168.71 44.8381 168.77 44.7967L191.357 31.2C191.795 30.9053 192.316 30.7602 192.843 30.7867H205.003C205.843 30.7867 206.41 31.3467 206.41 32.1867L206.403 47.2467L206.41 47.25Z" fill="white"/>
        </g>
        <g opacity="0.2">
            <path d="M359.898 14.5402C338.088 14.5402 320.292 25.927 320.292 39.8978C320.292 53.8686 338.088 65.2555 359.898 65.2555C381.708 65.2555 399.504 53.8686 399.504 39.8978C399.504 25.927 381.708 14.5402 359.898 14.5402ZM370.861 19.2409C374.365 19.9124 377.65 20.9051 380.599 22.1606C383.139 23.4745 384.628 25.0219 384.628 26.7007C384.628 30.0876 378.555 33.0219 369.883 34.3066C369.285 27.7664 367.679 22.1752 365.518 18.5986C367.387 18.7445 369.168 18.9635 370.861 19.2409ZM359.898 18.3796C363.183 18.3796 365.942 25.3431 366.715 34.7007C364.54 34.9051 362.263 35.0219 359.898 35.0219C357.533 35.0219 355.241 34.9051 353.08 34.7007C353.854 25.3285 356.628 18.3796 359.898 18.3796ZM339.197 22.1606C342.146 20.9051 345.431 19.927 348.934 19.2409C350.613 18.9635 352.409 18.7445 354.277 18.5986C352.117 22.1752 350.511 27.781 349.912 34.3066C341.241 33.0073 335.168 30.0876 335.168 26.7007C335.168 25.0219 336.657 23.4599 339.197 22.1606ZM323.81 39.8978C323.81 34.8029 326.759 30.1168 331.679 26.4088C331.664 26.584 331.65 26.7591 331.65 26.9343C331.65 31.9124 339.153 36.1898 349.693 37.8978C349.664 38.6132 349.664 39.3285 349.664 40.0584C349.664 48.8759 351.445 56.6715 354.161 61.2993C336.993 59.6496 323.81 50.6715 323.81 39.8978ZM360.774 61.5767C360.482 61.5767 360.19 61.5767 359.898 61.5767C359.606 61.5767 359.314 61.5767 359.022 61.5767C355.547 60.2482 352.847 51.0949 352.847 40.0584C352.847 39.4745 352.861 38.9051 352.876 38.3358C355.124 38.5694 357.474 38.7007 359.898 38.7007C362.321 38.7007 364.672 38.5694 366.92 38.3358C366.934 38.9051 366.949 39.4891 366.949 40.0584C366.934 51.0949 364.234 60.2482 360.774 61.5767ZM365.635 61.3139C368.35 56.6861 370.131 48.8905 370.131 40.073C370.131 39.3431 370.117 38.6278 370.102 37.9124C380.642 36.2044 388.146 31.927 388.146 26.9489C388.146 26.7737 388.131 26.5986 388.117 26.4234C393.037 30.1314 395.985 34.8175 395.985 39.9124C395.985 50.6715 382.803 59.6496 365.635 61.3139Z" fill="white"/>
        </g>
        <g opacity="0.2">
            <path d="M530.378 60.5555C531.8 60.3778 541.689 59.1777 548.667 55.6889C556.222 51.9111 559.867 45.8 559.867 40.3777C559.867 28.6666 543.467 19.6222 519.978 19.6222C496.489 19.6222 480.133 28.6 480.133 40.3777C480.133 45.8666 483.733 52.0444 491.333 55.6889C498.356 59.0666 508.311 60.3111 509.8 60.5555L519.978 30.7777L530.378 60.5555ZM519.978 26.1333C519.978 26.1333 504.489 46.7777 503 48.6444C497.289 48.1333 487.4 44.3555 487.4 37.8889C487.4 29.6666 501.8 22 519.978 22C539.067 22 552.556 29.6666 552.556 37.8889C552.556 44.4 542.667 48.1111 536.956 48.5778C535.4 46.6 519.978 26.1333 519.978 26.1333Z" fill="white"/>
        </g>
        <g opacity="0.2">
            <path fill-rule="evenodd" clip-rule="evenodd" d="M681.605 16.9559C677.416 21.8241 665.468 37.541 664.106 39.576C661.485 43.4753 661.253 45.3647 661.176 46.6237C661.1 47.8595 661.1 50.0875 663.233 51.9043C666.805 54.9072 671.815 54.4222 676.261 54.4222H712.881C714.448 54.4222 714.911 53.9858 715.759 52.9208C718.689 48.7063 720 44.129 720 40.0357C720 31.2685 713.962 20.2256 698.671 15.2362L696.947 17.5611C709.077 22.9849 714.089 30.0812 714.089 40.0105C714.167 42.675 713.42 45.5568 711.57 48.2212H675.951C673.819 48.2212 673.51 45.9448 674.281 44.6605C677.335 39.539 680.742 34.6123 684.482 29.9125C688.081 25.3838 691.626 21.1451 695.353 16.7134C696.355 15.4787 695.687 14.2914 693.683 13.9044C689.52 13.081 685.177 12.5 679.909 12.5C650.692 12.5 640 28.314 640 40.0357C640 52.751 650.768 67.5 679.986 67.5C696.201 67.5 706.815 62.5823 712.957 56.262H706.763C701.391 60.9363 692.166 64.2555 679.986 64.2555C655.238 64.2555 646.117 51.1525 646.117 39.866C646.296 29.7912 656.087 15.8899 680.604 15.4302C681.529 15.4059 682.25 16.2052 681.605 16.9559Z" fill="white"/>
        </g>
        <g opacity="0.2" clip-path="url(#clip2_1_40)">
            <path fill-rule="evenodd" clip-rule="evenodd" d="M813.975 27.5C806.311 27.5 799.872 33.8265 800.002 41.4762C800.129 48.9835 806.351 55 813.976 55C817.25 55 820.265 53.8908 822.65 52.03C825.036 53.8905 828.051 55 831.326 55C834.599 55 837.615 53.8908 840 52.03C842.385 53.8905 845.401 55 848.675 55C851.95 55 854.965 53.8908 857.35 52.03C859.736 53.8905 862.751 55 866.025 55C873.649 55 879.871 48.9845 879.998 41.4762C880.128 33.826 873.688 27.5 866.025 27.5C862.778 27.5 859.751 28.6355 857.35 30.526C854.949 28.6355 851.922 27.5 848.675 27.5C845.428 27.5 842.401 28.6355 840 30.526C837.599 28.6355 834.572 27.5 831.325 27.5C828.078 27.5 825.051 28.6355 822.65 30.5262C820.249 28.6355 817.222 27.5 813.975 27.5ZM831.326 51.8795C828.926 51.8795 826.708 51.1103 824.914 49.808C826.768 47.5168 827.895 44.628 827.949 41.4762C828.004 38.1915 826.849 35.151 824.906 32.7505C826.715 31.4162 828.945 30.6205 831.325 30.6205C833.705 30.6205 835.935 31.4162 837.744 32.7502C835.801 35.151 834.646 38.192 834.701 41.4765C834.754 44.628 835.882 47.517 837.737 49.8083C835.942 51.1105 833.724 51.8795 831.326 51.8795ZM824.784 41.4243C824.824 39.0255 824.019 36.7872 822.65 34.977C821.281 36.7872 820.476 39.0255 820.517 41.4243C820.556 43.7358 821.343 45.866 822.65 47.592C823.957 45.866 824.745 43.736 824.784 41.4243ZM817.352 41.4762C817.296 38.1915 818.451 35.151 820.395 32.7505C818.585 31.4162 816.355 30.6205 813.975 30.6205C808.057 30.6205 803.067 35.5405 803.167 41.4243C803.265 47.2228 808.072 51.8795 813.976 51.8795C816.375 51.8795 818.593 51.1105 820.387 49.808C818.533 47.5168 817.405 44.628 817.352 41.4762ZM845.298 41.4762C845.354 38.1915 844.199 35.151 842.256 32.7502C844.065 31.4162 846.295 30.6205 848.675 30.6205C851.055 30.6205 853.285 31.4162 855.094 32.7505C853.151 35.151 851.996 38.1915 852.052 41.4762C852.105 44.628 853.232 47.5168 855.087 49.808C853.292 51.1105 851.074 51.8795 848.675 51.8795C846.276 51.8795 844.058 51.1103 842.263 49.808C844.118 47.5168 845.245 44.628 845.298 41.4762ZM855.216 41.4243C855.176 39.0255 855.981 36.787 857.35 34.9767C858.719 36.787 859.524 39.0255 859.483 41.4243C859.444 43.736 858.657 45.866 857.35 47.592C856.043 45.866 855.256 43.7358 855.216 41.4243ZM866.025 51.8795C863.626 51.8795 861.408 51.1103 859.613 49.808C861.468 47.517 862.595 44.6282 862.648 41.4765C862.704 38.1912 861.549 35.1507 859.606 32.7502C861.415 31.4162 863.645 30.6205 866.025 30.6205C871.943 30.6205 876.933 35.54 876.833 41.4243C876.735 47.2238 871.928 51.8795 866.025 51.8795ZM842.133 41.4975C842.174 39.0988 841.369 36.8605 840 35.0502C838.631 36.8605 837.826 39.0988 837.866 41.4975C837.905 43.809 838.693 45.9392 840 47.6652C841.307 45.9392 842.094 43.8093 842.133 41.4975Z" fill="white"/>
        </g>
        <g opacity="0.2" clip-path="url(#clip3_1_40)">
            <path d="M1028.6 4.5C1023 1.6 1016.7 0 1010 0C1003.3 0 997 1.6 991.4 4.5C978.7 11.2 970 24.6 970 40C970 55.4 978.7 68.8 991.5 75.5C997 78.3 1003.3 80 1010 80C1016.7 80 1022.9 78.3 1028.5 75.4C1041.3 68.8 1050 55.4 1050 40C1050 24.6 1041.3 11.2 1028.6 4.5ZM974 40C974 26.9 981 15.5 991.5 9.1C996.6 6 1002.5 4.2 1009 4L1004.5 36.7L991.5 46.8L978.3 57.1C975.6 52 974 46.2 974 40ZM1028.6 70.8C1023.1 74.1 1016.8 76 1010 76C1003.2 76 996.8 74.1 991.4 70.8C986.5 67.9 982.5 63.9 979.5 59.1L991.4 54.2L1010 46.6L1028.6 54.1L1040.6 59C1037.6 63.9 1033.4 67.9 1028.6 70.8ZM1028.6 46.8L1015.7 36.8L1011.1 4C1017.4 4.2 1023.4 6 1028.5 9.1C1039 15.4 1046 26.9 1046 40C1046 46.2 1044.5 52 1041.7 57.1L1028.6 46.8Z" fill="white"/>
        </g>
        <g opacity="0.2">
            <path d="M1131.44 32.1438C1132.55 32.1961 1133.59 32.2353 1134.64 32.2876C1135.23 32.3137 1135.83 32.3399 1136.42 32.366C1137.33 32.4052 1138.25 32.4575 1139.16 32.4967C1139.75 32.5229 1140.33 32.549 1140.92 32.5752C1141.59 32.6013 1142.27 32.6405 1142.94 32.6667C1143.44 32.6928 1143.92 32.7059 1144.42 32.732C1145.37 32.7843 1146.33 32.8235 1147.28 32.8758C1147.78 32.902 1148.27 32.915 1148.78 32.9412C1149.61 32.9804 1150.43 33.0327 1151.24 33.0719C1151.78 33.098 1152.31 33.1242 1152.84 33.1503C1153.66 33.1895 1154.5 33.2418 1155.32 33.2811C1155.82 33.3072 1156.31 33.3333 1156.82 33.3595C1157.44 33.3856 1158.07 33.3987 1158.68 33.451C1159.8 33.5294 1160.85 33.268 1161.88 32.8889C1163.44 32.3137 1165.02 31.8431 1166.63 31.4379C1167.67 31.1765 1168.72 30.9412 1169.78 30.7059C1169.91 30.6797 1170.05 30.6797 1170.18 30.7059C1172.48 31.1765 1174.76 31.7778 1176.99 32.5098C1177.7 32.7451 1178.41 32.9935 1179.11 33.2288C1179.58 33.3856 1180.07 33.4641 1180.56 33.451C1181.29 33.4379 1182.01 33.3987 1182.75 33.3726C1183.29 33.3464 1183.84 33.3333 1184.39 33.3072C1185.2 33.268 1186.01 33.2157 1186.82 33.1765C1187.39 33.1503 1187.95 33.1242 1188.5 33.098C1189.35 33.0588 1190.18 33.0065 1191.03 32.9673C1191.65 32.9412 1192.25 32.915 1192.86 32.8889C1193.71 32.8497 1194.58 32.7974 1195.42 32.7582C1196.01 32.732 1196.59 32.719 1197.18 32.6797C1198.05 32.6405 1198.94 32.5882 1199.82 32.549C1200.43 32.5229 1201.03 32.4967 1201.65 32.4706C1202.55 32.4314 1203.44 32.3791 1204.34 32.3399C1204.95 32.3137 1205.58 32.2876 1206.2 32.2614C1206.99 32.2353 1207.79 32.1961 1208.59 32.183C1208.76 32.183 1208.94 32.2092 1209.11 32.2484C1209.58 32.366 1209.73 32.6536 1209.49 33.085C1209.25 33.5425 1209.01 33.9869 1208.75 34.4183C1208.08 35.5033 1207.35 36.536 1206.44 37.451C1205.88 38.0131 1205.24 38.4706 1204.51 38.7974C1203.53 39.2418 1202.52 39.5686 1201.5 39.8954C1198.38 40.8628 1195.28 41.8562 1192.14 42.7974C1188.39 43.9085 1184.64 44.9804 1180.88 46.0523C1179.11 46.5621 1177.33 47.0719 1175.56 47.5425C1173.76 48.0131 1171.97 48.4314 1170.17 48.8758C1170.03 48.915 1169.87 48.902 1169.73 48.8758C1166.18 48.0523 1162.67 47.1242 1159.18 46.1046C1155.37 44.9935 1151.54 43.9216 1147.74 42.7974C1144.63 41.8693 1141.54 40.8889 1138.46 39.9216C1137.59 39.6471 1136.76 39.3464 1135.91 39.0327C1134.72 38.6013 1133.76 37.8562 1132.94 36.902C1131.96 35.7516 1131.14 34.4967 1130.44 33.1634C1130.18 32.6536 1130.34 32.3529 1130.9 32.2484C1131.12 32.1699 1131.32 32.1569 1131.44 32.1438ZM1158.73 39.6209C1158.55 39.6471 1158.38 39.6732 1158.21 39.6863C1157.74 39.7124 1157.28 39.7255 1156.81 39.7386C1156.29 39.7516 1155.76 39.7647 1155.24 39.7909C1154.93 39.8039 1154.61 39.817 1154.31 39.8431C1154.01 39.8562 1153.71 39.8954 1153.4 39.9085C1152.95 39.9216 1152.5 39.9216 1152.05 39.9477C1151.37 39.9739 1150.71 40.0261 1150.03 40.0654C1149.53 40.0915 1149.03 40.1177 1148.54 40.1438C1148.03 40.1699 1147.52 40.183 1147.02 40.1961C1146.88 40.1961 1146.73 40.1961 1146.59 40.1961C1146.29 40.2092 1146 40.2222 1145.7 40.2353C1145.4 40.2484 1145.11 40.2484 1144.81 40.2614C1144.75 40.2614 1144.68 40.3007 1144.61 40.3137C1144.61 40.3399 1144.61 40.3529 1144.61 40.3791C1144.71 40.4183 1144.78 40.4706 1144.89 40.4967C1145.25 40.6013 1145.62 40.6928 1145.99 40.8105C1148.16 41.4771 1150.33 42.1569 1152.52 42.719C1153.15 42.8758 1153.78 43.0327 1154.43 43.0065C1155.53 42.9804 1156.61 42.9281 1157.71 42.915C1158.59 42.902 1159.46 42.8889 1160.34 42.902C1160.78 42.902 1161.19 43.0588 1161.54 43.3203C1161.65 43.3987 1161.71 43.4902 1161.7 43.6601C1161.53 43.7255 1161.35 43.8039 1161.15 43.8693C1160.44 44.0915 1159.74 44.3007 1159.03 44.5229C1158.93 44.549 1158.78 44.5752 1158.8 44.7059C1158.81 44.8497 1158.95 44.8627 1159.07 44.8889C1159.45 44.9935 1159.84 45.0719 1160.22 45.1895C1161.59 45.6079 1162.95 46.0392 1164.33 46.4444C1164.67 46.549 1165.02 46.6144 1165.36 46.6928C1165.46 46.719 1165.56 46.719 1165.65 46.6013C1165.59 46.536 1165.57 46.4575 1165.5 46.4052C1165.39 46.2876 1165.27 46.183 1165.15 46.0784C1164.29 45.3595 1163.49 44.5882 1162.84 43.6863C1162.07 42.6275 1161.35 41.5163 1160.6 40.4444C1160.05 39.6471 1159.52 38.8497 1158.93 38.0654C1158.64 37.6863 1158.3 37.3333 1157.95 36.9935C1157.46 36.5229 1156.82 36.3399 1156.2 36.1699C1154.81 35.8039 1153.4 35.5948 1151.97 35.3987C1151.25 35.2941 1150.52 35.2157 1149.8 35.1373C1148.99 35.0327 1148.17 34.9412 1147.36 34.8497C1146.68 34.7712 1146 34.7059 1145.32 34.6275C1144.27 34.5098 1143.22 34.3922 1142.17 34.2745C1141.63 34.2222 1141.11 34.1699 1140.58 34.1177C1139.83 34.0392 1139.1 33.9608 1138.35 33.8824C1137.87 33.8301 1137.4 33.7909 1136.92 33.7386C1136.64 33.7124 1136.38 33.6601 1136.1 33.634C1135.84 33.6078 1135.57 33.6078 1135.29 33.5686C1134.65 33.4641 1134.01 33.4641 1133.37 33.4771C1133.32 33.4771 1133.27 33.5163 1133.2 33.5294C1133.29 33.8562 1133.46 34.1177 1133.65 34.3791C1134.26 35.2549 1134.98 36.0131 1135.8 36.6928C1136.69 37.4379 1137.67 37.9346 1138.84 38.0654C1139.39 38.1307 1139.92 38.2222 1140.47 38.2745C1141.22 38.3529 1141.95 38.4052 1142.69 38.4575C1143.33 38.4967 1143.96 38.5098 1144.6 38.536C1145.39 38.5621 1146.16 38.6013 1146.94 38.6144C1148.38 38.6275 1149.83 38.6144 1151.27 38.6275C1152.34 38.6275 1153.4 38.6667 1154.47 38.6667C1155.03 38.6667 1155.59 38.6667 1156.16 38.6667C1156.48 38.6667 1156.82 38.6667 1157.15 38.6667C1157.29 38.6667 1157.44 38.6797 1157.57 38.719C1157.92 38.8366 1158.24 39.0065 1158.52 39.2418C1158.64 39.3203 1158.73 39.4248 1158.73 39.6209ZM1178.29 43.4641C1178.35 43.4118 1178.41 43.3464 1178.48 43.2811C1178.82 43.0327 1179.22 42.902 1179.62 42.8889C1180.31 42.8758 1181.01 42.8758 1181.7 42.8889C1182.89 42.915 1184.09 42.9673 1185.28 42.9935C1185.58 43.0065 1185.88 43.0196 1186.17 42.9543C1186.86 42.8235 1187.57 42.6797 1188.25 42.4837C1189.91 42.0131 1191.57 41.5163 1193.23 41.0196C1193.82 40.8497 1194.39 40.6797 1194.98 40.5098C1195.11 40.4706 1195.24 40.4314 1195.32 40.2745C1195.25 40.2614 1195.2 40.2353 1195.15 40.2353C1194.86 40.2222 1194.58 40.2353 1194.3 40.2222C1194.01 40.2092 1193.73 40.1438 1193.44 40.1438C1192.97 40.1569 1192.5 40.0915 1192.03 40.1046C1191.5 40.1177 1190.98 40.0261 1190.46 40.0131C1189.83 40 1189.2 39.9608 1188.59 39.9216C1188.17 39.9085 1187.74 39.8954 1187.32 39.8693C1187.14 39.8562 1186.95 39.8562 1186.76 39.8431C1186.29 39.817 1185.82 39.7778 1185.35 39.7647C1184.81 39.7386 1184.26 39.7255 1183.73 39.7124C1183.41 39.6994 1183.1 39.6732 1182.78 39.6601C1182.29 39.6471 1181.79 39.6209 1181.29 39.6078C1181.25 39.6078 1181.22 39.5817 1181.15 39.5556C1181.22 39.451 1181.25 39.3595 1181.32 39.2941C1181.58 39.0065 1181.93 38.8497 1182.29 38.7059C1182.68 38.549 1183.1 38.5621 1183.52 38.549C1187.08 38.5229 1190.67 38.5882 1194.24 38.4967C1195.05 38.4706 1195.84 38.4706 1196.65 38.4183C1197.75 38.3529 1198.85 38.2614 1199.95 38.1699C1200.42 38.1307 1200.89 38.0523 1201.36 37.9739C1201.9 37.8824 1202.42 37.7647 1202.9 37.4902C1203.53 37.1503 1204.09 36.719 1204.63 36.2353C1205.4 35.5294 1206.07 34.719 1206.63 33.8431C1206.69 33.7386 1206.78 33.6209 1206.73 33.4641C1206.67 33.4641 1206.61 33.451 1206.56 33.451C1205.56 33.4379 1204.58 33.5556 1203.58 33.6601C1202.58 33.7778 1201.58 33.8693 1200.58 33.9608C1200.07 34.0131 1199.54 34.0654 1199.03 34.1177C1198.13 34.2092 1197.23 34.3137 1196.33 34.4183C1195.63 34.4967 1194.94 34.5621 1194.26 34.6405C1193.24 34.7582 1192.22 34.8758 1191.22 34.9935C1190.72 35.0458 1190.22 35.098 1189.73 35.1634C1189.03 35.2549 1188.35 35.3333 1187.66 35.4379C1186.85 35.5556 1186.04 35.6863 1185.23 35.8301C1184.75 35.9216 1184.27 36.0392 1183.8 36.1569C1183.06 36.3399 1182.34 36.6013 1181.8 37.1895C1181.44 37.5948 1181.07 37.9869 1180.76 38.4314C1179.86 39.7255 1178.99 41.0196 1178.12 42.3268C1177.35 43.4902 1176.48 44.5752 1175.45 45.5163C1175.16 45.7778 1174.88 46.0131 1174.59 46.2745C1174.48 46.366 1174.38 46.4445 1174.35 46.6275C1174.44 46.6405 1174.52 46.6667 1174.59 46.6536C1174.92 46.5882 1175.25 46.536 1175.58 46.4314C1176.72 46.0915 1177.84 45.7386 1178.98 45.3987C1179.65 45.2026 1180.31 44.9412 1181.01 44.8366C1181.08 44.8235 1181.2 44.7974 1181.2 44.6797C1181.22 44.5621 1181.11 44.536 1181.02 44.4967C1181.01 44.4967 1180.99 44.4837 1180.97 44.4837C1180.33 44.2745 1179.69 44.0654 1179.05 43.8431C1178.88 43.7909 1178.71 43.7386 1178.54 43.6732C1178.42 43.6601 1178.31 43.6209 1178.29 43.4641ZM1170 33.9477C1170 33.9608 1170 33.9608 1170 33.9739C1169.93 33.9739 1169.88 33.9739 1169.82 33.9869C1169.66 34.0131 1169.52 34.0392 1169.37 34.0654C1167.82 34.3922 1166.3 34.8235 1164.8 35.3464C1164.27 35.5294 1163.75 35.7516 1163.25 35.9869C1162.9 36.1438 1162.86 36.2745 1162.97 36.6405C1163.12 37.1634 1163.27 37.6863 1163.45 38.1961C1163.86 39.3987 1164.33 40.5621 1164.97 41.6601C1165.22 42.0915 1165.5 42.5098 1165.88 42.8366C1166.99 43.8039 1168.24 44.5752 1169.57 45.2157C1169.88 45.3595 1170.17 45.3856 1170.46 45.2026C1170.48 45.1895 1170.52 45.1765 1170.55 45.1634C1171.28 44.8235 1171.97 44.4183 1172.64 43.9608C1173.1 43.6471 1173.53 43.3203 1173.96 42.9804C1174.58 42.4967 1174.97 41.8431 1175.32 41.1634C1175.82 40.2092 1176.22 39.2026 1176.56 38.183C1176.75 37.6471 1176.9 37.1111 1177.06 36.5752C1177.14 36.3007 1177.08 36.1961 1176.85 36.0392C1176.78 36 1176.72 35.9608 1176.65 35.9346C1176.25 35.7647 1175.84 35.5686 1175.44 35.4248C1174.05 34.9281 1172.63 34.536 1171.19 34.1961C1170.8 34.0915 1170.39 34.0262 1170 33.9477Z" fill="white"/>
        </g>
        <g opacity="0.2" clip-path="url(#clip4_1_40)">
            <path d="M1333.64 59.0925C1334.11 58.7376 1335.15 58.3828 1335.72 58.1372C1335.69 57.2637 1335.34 56.4449 1335.55 55.708C1335.94 54.3978 1336.84 53.8246 1337.71 53.7155C1337.77 53.7428 1337.82 53.8519 1337.77 53.8792C1337.27 54.3432 1337.08 54.9983 1337 55.708C1336.97 55.9809 1336.92 56.827 1337.17 57.4275C1337.68 57.1546 1338.94 56.7179 1339.35 56.636C1339.4 55.7625 1339.54 54.9164 1339.79 54.2886C1340.28 53.0604 1341.37 52.0778 1342.46 52.651C1342.51 52.6783 1342.57 52.7875 1342.51 52.8147C1341.83 53.0604 1341.4 53.7701 1341.01 54.5889C1340.9 54.8345 1340.52 56.1447 1340.96 56.4176C1340.96 56.4176 1340.99 56.4176 1340.99 56.4449C1341.78 56.2811 1341.91 56.363 1342.76 56.2811C1342.9 55.435 1343.28 54.6981 1343.61 54.1522C1344.1 53.1969 1345.38 52.4326 1346.53 53.115C1346.58 53.1423 1346.64 53.2788 1346.55 53.2788C1345.76 53.4425 1345.24 53.9611 1344.97 54.4251C1344.83 54.6435 1344.1 55.6534 1344.48 56.0628C1344.51 56.0628 1344.56 56.0628 1344.62 56.0628C1345.3 56.0355 1345.79 56.172 1346.5 56.3084C1346.72 55.7898 1346.91 55.7353 1347.13 55.4623C1347.92 54.507 1349.26 54.1795 1349.72 55.0802C1349.78 55.1348 1349.78 55.244 1349.72 55.244C1349.31 55.2985 1348.63 55.5169 1348.3 55.9263C1348.22 56.0082 1348 56.2538 1347.78 56.7179C1348.71 57.4275 1349.23 58.0007 1349.47 58.956C1349.53 59.1198 1349.61 60.1024 1349.28 59.6111C1347.78 57.7277 1345.76 57.3183 1342.73 57.6186C1339.49 57.9188 1337.98 58.4101 1334.74 60.1569C1336.54 61.7673 1333.84 63.3504 1333.4 60.9758C1331.82 63.3777 1330.15 60.348 1332.28 59.9113C1330.1 57.7823 1333.07 56.7997 1333.64 59.0925Z" fill="white"/>
            <path d="M1339.19 48.7205C1340.36 48.3384 1341.64 47.929 1342.3 47.7925C1342.41 45.8819 1344.21 43.5073 1346.34 44.3261C1346.42 44.3534 1346.47 44.4626 1346.39 44.4899C1345.85 44.6536 1344.1 46.3186 1344.7 47.3831C1345.14 47.4104 1346.34 47.3831 1346.69 47.4104C1347.16 45.3087 1348.98 43.8348 1351.06 44.7901C1351.14 44.8174 1351.19 44.9539 1351.11 44.9539C1350.29 45.0903 1348.44 46.4005 1348.66 47.5195C1349.04 47.5468 1350.08 47.9017 1350.73 48.2565C1350.98 47.7379 1351.25 47.5468 1351.5 47.2739C1352.4 46.3186 1354.25 46.2367 1354.8 47.1647C1354.85 47.2193 1354.85 47.3285 1354.8 47.3285C1354.01 47.3012 1353.3 47.4104 1352.61 48.0108C1352.5 48.0927 1352.29 48.4203 1352.04 48.8843C1352.7 49.2391 1353.43 49.9214 1353.57 50.5765C1353.68 50.904 1353.73 51.177 1353.68 51.5045C1353.65 51.5864 1353.49 51.5045 1353.43 51.4499C1351.71 49.5666 1347.92 48.393 1344.23 48.857C1341.78 49.1572 1339.38 49.8396 1337.38 50.713C1338.07 50.1125 1338.67 49.4574 1339.19 48.7205ZM1333.78 52.9784C1333.62 53.1422 1333.45 53.2787 1333.32 53.4424C1334.19 54.6434 1332.8 55.5987 1332.39 54.3977C1331.35 55.5168 1330.53 54.2067 1331.22 53.6608C1332.09 53.5243 1332.96 53.306 1333.78 52.9784Z" fill="white"/>
            <path d="M1333.18 69.0822C1333.43 68.8093 1334.03 68.2907 1334.33 68.045C1333.4 66.5984 1333.92 64.7424 1334.82 64.6059C1334.87 64.6332 1334.9 64.7151 1334.87 64.7697C1334.63 65.1245 1334.52 67.0351 1335.23 67.4446C1335.58 67.1989 1336.26 66.7076 1336.56 66.6257C1336.05 64.8789 1336.95 62.5316 1338.69 62.9137C1338.75 62.941 1338.78 63.0502 1338.75 63.0774C1337.33 63.8144 1337.3 65.9979 1337.68 66.2436C1338.26 66.0798 1338.88 65.8342 1339.51 65.7796C1339.79 63.4596 1341.83 62.4224 1342.87 63.0229C1342.92 63.0501 1342.95 63.1866 1342.92 63.1866C1342.35 62.8591 1340.19 65.0699 1340.9 65.725C1341.4 65.6977 1341.97 65.9161 1342.54 66.0525C1342.79 64.7697 1344.59 63.7052 1345.35 64.524C1345.41 64.5786 1345.41 64.6878 1345.38 64.6878C1344.7 64.8243 1343.8 65.4521 1343.66 66.653C1345.11 67.3354 1344.94 68.7547 1344.7 68.3726C1343.33 66.5711 1340.44 66.8714 1338.23 67.3354C1336.95 67.6083 1335.15 68.8366 1334.38 69.71C1336.7 70.8018 1334.6 72.8489 1333.62 70.5288C1332.01 73.3674 1330.42 70.7745 1332.31 70.0102C1330.01 68.2361 1332.39 67.0351 1333.18 69.0822Z" fill="white"/>
            <path d="M1309.82 66.926C1307.52 64.2784 1305.59 61.4125 1304.03 58.5193H1329.14V66.926H1309.82Z" fill="white"/>
            <path d="M1341.23 25.8478H1359.68V33.0808H1341.23V25.8478Z" fill="white"/>
            <path d="M1359.68 14.8754L1354.22 12.9375L1347.86 11.6547L1340.71 10.0989L1334.08 9.58032H1329.03V17.1955H1359.66L1359.68 14.8754Z" fill="white"/>
            <path d="M1302.86 6.33233C1303.59 6.08668 1304.33 5.86832 1305.09 5.64996C1305.37 5.56808 1305.64 5.4862 1305.94 5.43161C1306.24 5.37702 1306.54 5.34973 1306.84 5.43161L1306.95 5.4862C1307.06 5.54079 1307.11 5.62267 1307.17 5.73185C1307.25 5.92291 1307.28 6.11397 1307.31 6.33233C1307.36 6.76904 1307.36 7.20575 1307.31 7.64246C1307.28 7.99729 1307.22 8.35211 1307.09 8.65235C1307.03 8.78882 1306.95 8.898 1306.84 9.00718C1306.76 9.08906 1306.68 9.17095 1306.6 9.22554C1306.4 9.36201 1306.24 9.47119 1306.02 9.55307C1305.53 9.77142 1305.04 9.93519 1304.52 10.099C1303.65 10.3992 1302.77 10.6994 1301.9 10.9997V12.61C1301.46 12.7738 1301.03 12.9649 1300.59 13.1286V7.06927C1301.35 6.82363 1302.09 6.57798 1302.86 6.33233ZM1301.9 9.9079C1302.77 9.60766 1303.65 9.30742 1304.55 9.00718C1304.82 8.9253 1305.09 8.84341 1305.34 8.73424L1305.53 8.62506L1305.61 8.57047L1305.69 8.48859L1305.78 8.4067L1305.83 8.32482L1305.91 8.16105C1305.94 8.05188 1305.97 7.96999 1305.97 7.86081C1305.99 7.58787 1305.99 7.34222 1305.91 7.06927L1305.86 6.9328L1305.8 6.82362L1305.72 6.74174L1305.61 6.68715L1305.5 6.65986H1305.39H1305.29C1305.01 6.68715 1304.77 6.76904 1304.49 6.85092C1303.62 7.12386 1302.75 7.4241 1301.87 7.69705L1301.9 9.9079ZM1313.01 3.57559C1313.61 3.46641 1314.18 3.35723 1314.78 3.30264C1314.97 3.27535 1315.17 3.27535 1315.36 3.27535C1315.44 3.27535 1315.55 3.30264 1315.63 3.32994C1315.71 3.35723 1315.77 3.38453 1315.85 3.43911C1315.9 3.4937 1315.96 3.521 1316.01 3.57559C1316.07 3.63018 1316.09 3.71206 1316.12 3.76665C1316.18 3.87583 1316.2 3.95771 1316.2 4.06689C1316.26 4.42171 1316.28 4.80384 1316.31 5.18596C1316.34 5.62267 1316.34 6.03209 1316.31 6.4415C1316.31 6.60527 1316.31 6.79633 1316.28 6.9601C1316.26 7.28763 1316.26 7.61516 1316.18 7.9427C1316.15 8.02458 1316.12 8.10646 1316.09 8.16105C1316.04 8.27023 1315.98 8.37941 1315.9 8.48859L1315.74 8.73424L1315.49 8.898C1315.38 8.95259 1315.3 8.97989 1315.19 9.03447C1314.76 9.17095 1314.32 9.25283 1313.88 9.36201C1312.98 9.55307 1312.08 9.71684 1311.18 9.9079C1310.74 9.98978 1310.31 10.0717 1309.87 10.1263C1309.76 10.1535 1309.63 10.1535 1309.52 10.1535L1309.24 10.1263C1309.16 10.099 1309.11 10.0717 1309.05 10.0444L1308.92 9.93519L1308.81 9.77142L1308.64 8.87071V6.4415C1308.67 6.16856 1308.7 5.86832 1308.75 5.59538L1308.83 5.34973C1308.89 5.21325 1308.94 5.10408 1309.02 4.9949L1309.22 4.77654L1309.38 4.64007C1309.54 4.53089 1309.73 4.42171 1309.95 4.33983L1310.94 4.03959C1311.56 3.84853 1312.27 3.71206 1313.01 3.57559ZM1312.33 4.80384L1310.91 5.13137C1310.8 5.15866 1310.69 5.21325 1310.58 5.24055L1310.47 5.32243L1310.36 5.40431L1310.28 5.4862L1310.2 5.56808L1310.12 5.64996L1310.06 5.75914C1310.01 5.84103 1309.98 5.9502 1309.95 6.03209C1309.87 6.38691 1309.87 6.74174 1309.87 7.09657C1309.87 7.47869 1309.87 7.86081 1309.93 8.21564L1309.98 8.35211L1310.06 8.48859L1310.17 8.59776L1310.28 8.67965L1310.42 8.73424L1310.55 8.76153H1310.72C1310.83 8.76153 1310.91 8.76153 1310.99 8.73424C1311.54 8.65235 1312.08 8.54317 1312.63 8.434C1313.06 8.35211 1313.53 8.24294 1313.96 8.13376C1314.05 8.10646 1314.16 8.07917 1314.24 8.05187L1314.37 7.96999L1314.51 7.88811L1314.62 7.77893L1314.73 7.66975L1314.81 7.53328L1314.87 7.39681L1314.92 7.26034C1315 6.85092 1314.97 6.4688 1314.97 6.05938C1314.97 5.84103 1314.97 5.62267 1314.95 5.43161L1314.92 5.26784C1314.89 5.15866 1314.87 5.04949 1314.81 4.94031L1314.76 4.83113L1314.7 4.74925L1314.62 4.66736L1314.57 4.64007L1314.46 4.58548L1314.35 4.55819L1314.13 4.53089C1313.88 4.53089 1313.66 4.55819 1313.45 4.58548C1313.06 4.66736 1312.68 4.74925 1312.33 4.80384ZM1321.33 2.56569C1322.02 2.5111 1322.7 2.45651 1323.38 2.45651C1323.52 2.45651 1323.68 2.45651 1323.82 2.45651C1323.98 2.45651 1324.12 2.48381 1324.25 2.56569C1324.31 2.59299 1324.36 2.62028 1324.39 2.64758C1324.5 2.72946 1324.58 2.81134 1324.64 2.94781C1324.69 3.0297 1324.72 3.13888 1324.75 3.22076C1324.8 3.43911 1324.8 3.68476 1324.8 3.90312C1324.8 4.20336 1324.8 4.4763 1324.77 4.77654C1324.77 4.88572 1324.75 4.9949 1324.72 5.10408L1324.66 5.21325C1324.61 5.29514 1324.58 5.34973 1324.53 5.43161L1324.39 5.54079C1324.34 5.56808 1324.28 5.62267 1324.2 5.64996C1324.12 5.67726 1324.01 5.70455 1323.93 5.73185L1323.19 5.89561L1323.93 6.30503C1324.04 6.38691 1324.12 6.4415 1324.2 6.52339L1324.28 6.63256C1324.39 6.79633 1324.47 6.9601 1324.56 7.15116C1324.66 7.47869 1324.72 7.80622 1324.72 8.13376C1324.28 8.16105 1323.85 8.16105 1323.41 8.18835C1323.38 7.9427 1323.35 7.72434 1323.27 7.47869L1323.16 7.20575L1323.11 7.06927L1323.03 6.9601L1322.94 6.85092L1322.84 6.76904L1322.7 6.68715C1322.62 6.65986 1322.54 6.63256 1322.45 6.63256C1322.29 6.60527 1322.1 6.63256 1321.93 6.63256C1321.09 6.68715 1320.27 6.76904 1319.42 6.85092L1319.1 6.87821V8.48859C1318.66 8.54318 1318.22 8.59776 1317.79 8.62506V2.89323C1318.99 2.75675 1320.16 2.64758 1321.33 2.56569ZM1319.12 5.89561C1320 5.81373 1320.87 5.73185 1321.74 5.67726C1322.04 5.64996 1322.34 5.62267 1322.64 5.59538C1322.73 5.59538 1322.81 5.56808 1322.89 5.54079L1323 5.51349L1323.11 5.4589L1323.19 5.40431L1323.27 5.32243L1323.33 5.24055L1323.38 5.15866C1323.41 5.07678 1323.44 5.02219 1323.44 4.94031C1323.46 4.69466 1323.46 4.44901 1323.46 4.20336C1323.46 4.12148 1323.44 4.03959 1323.41 3.93041L1323.35 3.84853L1323.3 3.76665L1323.22 3.68476L1323.14 3.63018L1323.05 3.57559L1322.94 3.54829C1322.86 3.521 1322.78 3.521 1322.7 3.521C1322.26 3.521 1321.83 3.57559 1321.42 3.60288C1320.65 3.65747 1319.92 3.73935 1319.15 3.79394L1319.12 5.89561ZM1328.4 7.23304C1328.89 7.23304 1329.39 7.23304 1329.9 7.23304C1330.23 7.23304 1330.59 7.23304 1330.94 7.20575C1331.02 7.20575 1331.08 7.17845 1331.16 7.17845C1331.24 7.15116 1331.3 7.12386 1331.35 7.09657L1331.43 7.04198L1331.49 6.9601L1331.54 6.87821L1331.57 6.79633L1331.6 6.60527V6.33233L1331.54 6.03209L1331.52 5.9502L1331.49 5.86832L1331.43 5.78644L1331.35 5.73185L1331.27 5.67726L1331.08 5.62267L1330.75 5.56808H1330.34H1327.58C1327.31 5.56808 1327.04 5.56808 1326.79 5.51349C1326.71 5.4862 1326.66 5.4862 1326.6 5.4589L1326.52 5.40431L1326.44 5.34973L1326.38 5.29514L1326.33 5.21325L1326.27 5.13137C1326.22 5.02219 1326.17 4.91301 1326.14 4.80384C1326.08 4.5036 1326.08 4.17606 1326.08 3.87583C1326.08 3.4937 1326.11 3.11158 1326.27 2.75675C1326.3 2.70216 1326.36 2.64758 1326.38 2.59299C1326.57 2.42922 1326.82 2.34734 1327.07 2.29275C1327.31 2.23816 1327.58 2.23816 1327.83 2.23816C1328.43 2.23816 1329.03 2.23816 1329.63 2.23816C1330.61 2.23816 1331.62 2.26545 1332.61 2.29275V3.16617C1331.3 3.13888 1329.99 3.11158 1328.68 3.11158C1328.38 3.11158 1328.08 3.11158 1327.78 3.13888C1327.72 3.13888 1327.64 3.16617 1327.58 3.16617L1327.48 3.22076L1327.39 3.30264L1327.34 3.41182L1327.31 3.521L1327.28 3.71206C1327.28 3.87583 1327.28 4.0123 1327.28 4.17606L1327.31 4.28524L1327.34 4.39442L1327.42 4.5036L1327.56 4.58548L1327.69 4.61278C1329.06 4.64007 1330.45 4.66736 1331.82 4.72195L1331.98 4.74925C1332.2 4.80384 1332.42 4.88572 1332.58 5.04949C1332.66 5.13137 1332.72 5.21325 1332.74 5.29514C1332.88 5.59538 1332.91 5.9502 1332.91 6.27774C1332.91 6.65986 1332.91 7.04198 1332.8 7.39681C1332.77 7.4514 1332.77 7.50599 1332.74 7.56058L1332.66 7.66975C1332.61 7.75164 1332.55 7.80622 1332.47 7.86081C1332.33 7.9427 1332.2 8.02458 1332.06 8.05187C1331.84 8.10646 1331.6 8.10646 1331.38 8.13376C1330.7 8.16105 1330.04 8.16105 1329.36 8.16105C1328.29 8.16105 1327.23 8.18835 1326.19 8.18835C1326.19 7.88811 1326.19 7.56058 1326.19 7.26034C1326.9 7.23304 1327.61 7.23304 1328.32 7.23304H1328.4ZM1337.44 8.434C1336.89 8.37941 1336.32 8.35211 1335.77 8.27023C1335.53 8.24294 1335.28 8.18835 1335.06 8.10646C1334.95 8.05187 1334.85 8.02458 1334.74 7.9427C1334.65 7.88811 1334.6 7.83352 1334.52 7.77893C1334.46 7.72434 1334.41 7.64246 1334.35 7.58787C1334.3 7.50599 1334.27 7.4241 1334.24 7.34222C1334.16 7.04198 1334.14 6.71445 1334.14 6.38691C1334.11 5.59538 1334.11 4.83113 1334.14 4.03959V3.84853C1334.16 3.4937 1334.19 3.13888 1334.41 2.83864C1334.49 2.75675 1334.54 2.67487 1334.65 2.62028C1334.93 2.48381 1335.25 2.42922 1335.55 2.40193C1335.88 2.37463 1336.18 2.37463 1336.51 2.40193C1337.14 2.42922 1337.79 2.45651 1338.42 2.5111C1339.35 2.59299 1340.25 2.67487 1341.18 2.78405V3.82124C1339.95 3.71206 1338.75 3.60288 1337.52 3.521C1337.14 3.4937 1336.73 3.46641 1336.32 3.4937L1336.13 3.521L1335.99 3.54829L1335.88 3.60288L1335.77 3.68476L1335.66 3.79394L1335.58 3.90312L1335.53 4.03959C1335.5 4.12148 1335.47 4.20336 1335.47 4.28524C1335.42 4.66736 1335.39 5.07678 1335.42 5.4862C1335.42 5.81373 1335.42 6.14126 1335.47 6.4688C1335.5 6.55068 1335.5 6.63256 1335.53 6.71445L1335.58 6.85092L1335.66 6.9601L1335.77 7.06927L1335.88 7.15116L1335.99 7.20575L1336.13 7.26034C1336.24 7.28763 1336.35 7.31492 1336.46 7.31492C1336.81 7.36951 1337.19 7.39681 1337.55 7.4241C1338.78 7.53328 1340.03 7.64246 1341.26 7.77893C1341.26 8.10646 1341.26 8.4067 1341.26 8.73424V8.84341C1340.5 8.76153 1339.7 8.67965 1338.94 8.62506C1338.48 8.51588 1337.96 8.48859 1337.44 8.434ZM1345.79 5.84103C1346.8 6.03209 1347.81 6.22315 1348.82 6.41421V4.09418C1349.28 4.20336 1349.75 4.31254 1350.24 4.39442V10.3719C1349.78 10.2627 1349.31 10.1535 1348.82 10.0444V7.69705C1348 7.53328 1347.21 7.36951 1346.39 7.20575C1345.65 7.06927 1344.89 6.9328 1344.15 6.79633V9.11636C1343.69 9.03447 1343.22 8.97989 1342.73 8.898V3.08429C1343.2 3.13888 1343.69 3.19346 1344.15 3.27535V5.56808C1344.7 5.64996 1345.24 5.73185 1345.79 5.84103ZM1356.52 6.22315C1357.01 6.38691 1357.5 6.55068 1358.02 6.71445V7.69705C1356.57 7.20575 1355.1 6.74174 1353.62 6.27774L1353.13 6.14126V7.64246C1354.2 7.96999 1355.29 8.29752 1356.35 8.65235C1356.82 8.81612 1357.31 8.95259 1357.77 9.11636V9.98978C1356.41 9.52577 1355.02 9.08906 1353.62 8.67965L1353.13 8.54317V10.1263C1354.17 10.4265 1355.21 10.754 1356.22 11.0816C1356.82 11.2726 1357.42 11.491 1358.05 11.682V12.6919C1356.08 12.0369 1354.09 11.4364 1352.07 10.8632L1351.85 10.8086V4.80384C1353.41 5.24055 1354.96 5.73185 1356.52 6.22315Z" fill="white"/>
            <path d="M1300.51 50.1398C1299.63 47.2193 1299.17 44.4899 1299.14 42.1426H1317.43C1317.49 45.2268 1318.77 48.0655 1320.79 50.1398H1300.51Z" fill="white"/>
            <path d="M1298.33 6.05935L1298.68 5.92287C1308.89 2.15624 1319.07 0.191041 1329.28 -2.02088e-05C1339.49 -0.163787 1349.67 1.44658 1359.87 4.88568L1360.26 5.02216V5.40428C1360.17 17.6595 1360.09 29.9147 1360.01 42.1699C1359.98 48.5022 1356.65 57.4002 1350.38 65.1791C1345.33 71.4568 1338.34 77.0249 1329.6 79.9727H1329.3C1320.49 77.7072 1313.53 72.3575 1308.45 66.1071C1301.96 58.0553 1298.63 48.4476 1298.6 41.9242C1298.54 36.0013 1298.52 30.0785 1298.46 24.1829L1298.33 6.05935ZM1310.23 66.5984H1328.79V59.147H1304.99C1304.9 59.0106 1304.82 58.8741 1304.77 58.7376C1306.05 61.0303 1307.55 63.2958 1309.27 65.452C1309.6 65.8342 1309.9 66.2163 1310.23 66.5984ZM1328.81 67.5264H1311.07C1315.66 72.5486 1321.58 76.7246 1328.81 78.7444V67.5264ZM1310.69 67.117C1310.66 67.0897 1310.66 67.0897 1310.66 67.0624C1310.66 67.0897 1310.69 67.117 1310.69 67.117ZM1304.47 58.1917H1328.81V53.7973C1329 53.7973 1329.2 53.7973 1329.39 53.7973C1329.52 53.7973 1329.63 53.7973 1329.77 53.7973V78.7717C1329.74 78.7717 1329.71 78.799 1329.71 78.799C1338.01 75.9058 1344.67 70.5561 1349.53 64.524C1355.56 57.0454 1358.78 48.5295 1358.92 42.4155C1358.92 42.4428 1358.92 42.4428 1358.92 42.4701H1341.37C1341.37 42.2791 1341.4 42.088 1341.4 41.8969V41.5148H1358.95C1358.97 38.8946 1358.97 36.2743 1359 33.6813H1341.4V32.7533H1359C1359.03 30.6243 1359.03 28.5227 1359.06 26.421H1341.4V25.493H1341.26V25.4657H1359.06C1359.08 22.9 1359.08 20.3616 1359.11 17.796H1329.5V25.493H1328.54V10.017C1318.82 10.1808 1309.08 12.1187 1299.31 15.9126L1299.28 14.93C1309.32 11.0542 1319.37 9.14362 1329.39 9.06173C1339.32 8.97985 1349.23 10.6994 1359.11 14.1112C1359.11 14.4387 1359.11 14.7663 1359.11 15.0938C1359.14 11.9822 1359.16 8.87067 1359.16 5.7864C1349.2 2.48377 1339.24 0.927991 1329.3 1.09176C1319.21 1.25552 1309.13 3.19343 1299.06 6.93277L1299.55 24.1829C1299.61 29.9693 1299.64 35.7557 1299.69 41.5694C1299.69 41.5694 1299.69 41.5694 1299.69 41.5421H1317.46V41.9242C1317.46 42.1153 1317.46 42.3064 1317.49 42.4974H1299.66C1299.72 44.681 1300.18 47.2194 1300.97 49.8942C1300.97 49.8669 1300.95 49.8396 1300.95 49.8123H1320.43C1320.6 50.0034 1320.76 50.1945 1320.95 50.3582L1321.55 50.7676H1301.25C1302.04 53.1695 1303.1 55.6806 1304.47 58.1917ZM1301.19 50.5766C1301.16 50.522 1301.16 50.4674 1301.14 50.4401C1301.16 50.4947 1301.19 50.522 1301.19 50.5766ZM1301.08 50.2217C1301.05 50.1672 1301.05 50.1126 1301.03 50.058C1301.05 50.1126 1301.08 50.1672 1301.08 50.2217ZM1358.89 41.9242V41.9515C1358.89 41.9515 1358.89 41.9515 1358.89 41.9242ZM1358.89 42.088V42.1153C1358.89 42.1153 1358.89 42.1153 1358.89 42.088ZM1358.89 42.088C1358.89 42.0607 1358.89 42.0607 1358.89 42.0607V42.088ZM1358.89 42.0061C1358.89 41.9788 1358.89 41.9788 1358.89 41.9788V42.0061ZM1358.89 41.5967C1358.89 41.5694 1358.89 41.5694 1358.89 41.5694V41.5967ZM1329.5 16.8679H1359.08C1359.08 17.0317 1359.08 17.1682 1359.08 17.3319C1359.08 16.595 1359.08 15.858 1359.08 15.1211C1349.23 11.682 1339.38 9.96245 1329.5 10.017V16.8679ZM1329.44 78.8809C1329.41 78.8809 1329.41 78.8809 1329.39 78.9082C1329.41 78.9082 1329.41 78.9082 1329.44 78.8809ZM1329.06 78.8263C1328.98 78.799 1328.92 78.799 1328.84 78.7717C1328.92 78.7717 1329 78.799 1329.06 78.8263Z" fill="white"/>
            <path d="M1303.54 21.1532C1304.06 20.8256 1304.6 20.4981 1305.15 20.2252C1305.07 19.379 1304.99 18.0689 1305.2 17.3592C1305.61 16.0491 1306.81 14.9846 1308.23 15.2303C1308.31 15.2576 1308.37 15.3394 1308.31 15.3667C1307.52 15.7762 1306.9 16.4039 1306.54 17.2774C1306.43 17.523 1306.05 19.2698 1306.62 19.4063C1306.68 19.4336 1306.73 19.4336 1306.81 19.4336C1307.85 18.9969 1308.92 18.6148 1310.01 18.2872C1310.01 17.4411 1310.03 16.2675 1310.33 15.6397C1310.88 14.4114 1312.25 13.5107 1313.72 13.9474C1313.8 13.9747 1313.86 14.0839 1313.8 14.1112C1312.93 14.4114 1312.22 14.93 1311.75 15.7489C1311.62 15.9945 1311.04 17.6595 1311.64 17.8778H1311.67C1312.68 17.6595 1313.72 17.4684 1314.84 17.3319C1314.97 16.4858 1315.19 15.394 1315.58 14.8209C1316.39 13.6199 1318.03 12.8011 1319.56 13.3742C1319.64 13.4015 1319.7 13.5107 1319.61 13.538C1318.6 13.7837 1317.73 14.2477 1317.1 15.0392C1316.94 15.2576 1316.09 16.7861 1316.59 17.1409C1316.64 17.1409 1316.69 17.1409 1316.75 17.1136C1317.62 17.0317 1318.63 17.0044 1319.59 17.059C1319.83 16.5404 1320.08 16.0764 1320.35 15.7762C1321.31 14.7936 1323.41 14.4387 1324.04 15.2849C1324.09 15.3394 1324.12 15.4486 1324.04 15.4486C1323.14 15.4759 1322.21 15.6124 1321.53 16.2402C1321.42 16.3493 1321.03 16.7315 1320.82 17.1682C1322.26 17.4138 1323.49 17.9051 1323.87 18.8331C1324.01 19.1334 1324.09 19.4063 1324.04 19.7339C1324.04 19.8157 1323.85 19.7611 1323.79 19.6793C1321.96 17.987 1319.04 17.7959 1315.14 18.4783C1311.18 19.1607 1307.88 20.3343 1304.33 22.0266C1305.75 23.637 1303.51 24.8652 1302.77 23.173C1301.05 25.22 1299.47 22.2449 1301.82 21.8901C1300.48 19.8157 1303.18 19.7339 1303.54 21.1532Z" fill="white"/>
            <path d="M1304.03 37.4752C1304.49 37.1204 1305.09 36.8201 1305.59 36.5199C1305.09 35.7284 1304.79 34.582 1304.99 33.845C1305.31 32.5349 1306.13 31.9071 1307.14 31.9617C1307.22 31.9617 1307.28 32.0709 1307.22 32.0982C1306.51 32.5622 1306.4 33.1627 1306.19 34.0634C1306.08 34.5547 1306.35 35.3735 1306.7 35.6738C1307.61 35.1825 1307.58 35.2643 1308.53 34.9095C1308.26 34.0634 1308.32 32.917 1308.67 32.2074C1309.22 31.061 1310.12 30.6243 1311.02 30.8154C1311.1 30.8426 1311.15 30.9245 1311.07 30.9518C1310.36 31.2521 1308.92 32.3984 1309.87 34.5547C1310.74 34.2545 1310.8 34.1999 1311.92 33.9542C1312 33.1081 1312.03 32.0982 1312.35 31.4977C1313.04 30.2695 1314.65 29.6963 1315.38 29.9965C1315.47 30.0238 1315.52 30.133 1315.44 30.1603C1315.03 30.4332 1314.48 30.6516 1313.94 31.4704C1313.64 31.9071 1313.12 32.917 1313.26 33.5994C1314.05 33.4902 1315.08 33.4356 1315.98 33.4629C1316.18 32.9443 1316.56 32.3165 1316.8 32.0163C1316.97 31.8252 1317.19 31.6615 1317.4 31.5796V34.6366C1315.9 34.5547 1314.24 34.7185 1312.66 35.1006C1309.08 35.9467 1308.15 36.6018 1304.96 38.3213C1306.87 39.5223 1305.01 41.351 1303.84 39.5496C1301.76 41.9242 1300.43 38.8672 1302.58 38.4032C1300.95 36.4107 1303.62 35.3462 1304.03 37.4752Z" fill="white"/>
            <path d="M1303.1 29.3415C1303.65 29.014 1304.38 28.7684 1304.93 28.4954C1304.88 27.6493 1304.77 26.885 1305.01 26.1754C1305.45 24.8925 1306.13 24.2375 1307.22 24.3467C1307.31 24.3739 1307.36 24.4558 1307.31 24.5104C1306.51 24.9198 1306.7 25.4657 1306.35 26.3119C1306.24 26.5575 1305.97 27.5947 1306.54 27.7585C1306.6 27.7858 1306.65 27.7858 1306.73 27.7858C1307.77 27.3763 1307.39 27.4036 1308.45 27.1307C1308.48 26.3119 1308.53 25.1928 1308.81 24.5923C1309.38 23.4186 1310.44 22.8455 1311.43 23.0911C1311.51 23.1184 1311.67 23.3095 1311.59 23.3368C1310.8 23.5824 1309.43 25.1928 1310.01 26.4483C1310.69 26.3391 1311.15 26.1208 1312.38 25.957C1312.55 25.1109 1312.82 24.2648 1313.23 23.6916C1314.07 22.5179 1315.38 22.2723 1316.15 22.6271C1316.23 22.6544 1316.34 22.8728 1316.26 22.9C1315.25 23.1184 1315.22 23.0092 1314.57 23.8008C1314.21 24.2102 1313.5 25.3293 1314.02 25.8478C1314.89 25.7933 1315.49 25.6841 1316.45 25.766C1316.69 25.2747 1316.89 24.5923 1317.16 24.3194C1318.11 23.3368 1319.78 23.2549 1320.32 23.9099C1320.38 23.9645 1320.41 24.0737 1320.32 24.0737C1319.42 24.101 1319.1 24.3467 1318.39 24.9744C1318.31 25.029 1318.14 25.2474 1317.95 25.5203H1317.43V27.2126C1315.96 27.0761 1314.35 27.1307 1312.85 27.349C1308.89 27.9495 1307.44 28.8502 1304.17 30.4333C1305.56 32.071 1303.29 33.2173 1302.61 31.4978C1300.86 33.5176 1299.31 30.4879 1301.71 30.1877C1300.37 28.0314 1302.72 27.4582 1303.1 29.3415Z" fill="white"/>
            <path d="M1340.8 26.0662V41.9243C1340.8 48.1747 1335.69 53.2515 1329.39 53.2515C1323.11 53.2515 1317.98 48.1747 1317.98 41.9243V26.0662H1340.8ZM1341.34 25.493H1317.4V41.897C1317.4 48.4204 1322.78 53.7974 1329.36 53.7974C1335.96 53.7974 1341.31 48.4204 1341.31 41.897L1341.34 25.493Z" fill="white"/>
            <path d="M1328.87 37.1204C1328.98 37.2296 1329.22 37.0931 1329.3 36.9839C1329.5 36.6837 1329.47 36.3016 1329.5 35.9195C1329.52 35.51 1329.52 35.1552 1329.39 34.7731C1329.17 34.118 1328.87 33.5994 1328.13 33.4902C1328.05 33.4629 1327.88 33.6267 1327.94 33.6813C1328.43 34.1999 1328.62 34.1726 1328.76 34.9641C1328.89 35.7284 1328.81 37.0658 1328.87 37.1204ZM1323.71 46.6462C1323.82 46.6735 1324.06 46.3459 1324.15 46.1549C1324.23 45.9911 1324.2 45.6636 1324.2 45.6363C1324.17 45.5817 1323.9 45.6909 1323.76 45.6909C1323.63 45.6909 1323.52 45.6636 1323.33 45.6363C1323.14 45.609 1323.16 45.1723 1323.14 44.9266C1323.08 44.2988 1323.05 43.6711 1323.08 43.0433C1323.08 42.8795 1323.14 42.6612 1323.27 42.552C1323.46 42.4428 1323.74 42.4701 1323.95 42.4974C1324.39 42.5793 1324.8 42.7976 1325.26 42.8795C1325.51 42.9341 1325.78 42.9068 1326.03 42.8249C1326.25 42.7704 1326.41 42.6066 1326.6 42.5247C1326.71 42.4974 1326.85 42.4701 1326.93 42.5247C1327.28 42.7158 1327.53 43.0706 1327.88 43.2071C1328.35 43.3435 1328.84 43.2889 1329.33 43.3162C1329.71 43.3162 1330.1 43.2617 1330.48 43.3162C1330.64 43.3435 1330.91 43.3708 1330.97 43.5619C1331.02 43.8075 1330.61 44.0259 1330.67 44.2715C1330.78 44.6537 1331.21 44.8447 1331.41 45.1723C1331.49 45.3087 1331.46 45.4725 1331.41 45.609C1331.35 45.7182 1331.16 45.7454 1331.08 45.8546C1330.97 46.0184 1330.94 46.2095 1330.83 46.3732C1330.72 46.537 1330.56 46.6735 1330.4 46.8099C1330.04 47.0829 1329.69 47.3558 1329.28 47.5742C1329.14 47.6561 1328.89 47.4923 1328.84 47.6288C1328.73 47.8744 1328.62 48.1747 1328.51 48.3384C1328.4 48.5022 1328.27 48.5295 1328.18 48.6114C1328.1 48.7205 1327.99 48.9116 1328.05 48.9389C1328.1 48.9662 1328.62 48.9662 1328.81 48.9389C1329 48.9116 1329.11 48.8843 1329.17 48.857C1329.22 48.8024 1329.14 48.6387 1329.09 48.3111C1329.06 47.9836 1329.96 47.8471 1330.4 47.6015C1330.86 47.3012 1331.32 46.9737 1331.79 46.7008C1331.98 46.5916 1332.25 46.5643 1332.42 46.4005C1332.5 46.3186 1332.47 46.1822 1332.47 46.073C1332.47 45.8 1332.42 45.5271 1332.42 45.2541C1332.42 45.1177 1332.42 44.9539 1332.52 44.872C1332.61 44.7901 1332.77 44.7628 1332.85 44.8174C1333.02 44.8993 1333.04 45.145 1333.18 45.2541C1333.4 45.4179 1333.67 45.4725 1333.92 45.5817C1334.14 45.6909 1334.52 45.6909 1334.54 45.9092C1334.6 46.3186 1334.33 46.7008 1334.16 47.0556C1334.08 47.2466 1333.89 47.3558 1333.78 47.5469C1333.73 47.6561 1333.73 47.7925 1333.64 47.8744C1333.43 48.0928 1333.13 48.2292 1332.91 48.4476C1332.74 48.6114 1332.61 48.7751 1332.52 48.9662C1332.47 49.0754 1332.44 49.1845 1332.39 49.2937C1332.31 49.4029 1332.17 49.4302 1332.09 49.594C1332.01 49.7577 1331.82 50.1944 1331.98 50.1671C1332.14 50.1499 1333.1 49.9761 1333.13 49.8669C1333.15 49.785 1333.07 49.5394 1333.02 49.2391C1332.96 48.9389 1333.64 48.7205 1333.97 48.5295C1334.16 48.4203 1334.44 48.4749 1334.6 48.3384C1334.71 48.2565 1334.65 48.0655 1334.68 47.9563C1334.76 47.7652 1334.82 47.5469 1334.98 47.3831C1335.17 47.1648 1335.5 47.0829 1335.66 46.8645C1335.83 46.5916 1336.02 46.264 1335.96 45.9638C1335.91 45.7182 1335.61 45.6363 1335.45 45.4452C1335.31 45.3087 1335.17 45.145 1335.12 44.9539C1335.04 44.681 1334.98 44.408 1335.06 44.1351C1335.17 43.8075 1335.5 43.5892 1335.69 43.3162C1335.85 43.0706 1336.1 42.8795 1336.18 42.6066C1336.26 42.2791 1336.1 41.9242 1336.07 41.5967C1336.07 41.5421 1336.02 41.4602 1336.07 41.4056C1336.29 41.2146 1336.54 40.9689 1336.84 40.9143C1337.11 40.887 1337.33 41.16 1337.6 41.2146C1337.87 41.2419 1338.2 41.2692 1338.47 41.16C1338.56 41.1327 1338.58 40.9416 1338.53 40.8597C1338.34 40.696 1337.93 40.7506 1337.85 40.5322C1337.79 40.3411 1338.17 40.2866 1338.28 40.0955C1338.42 39.8498 1338.53 39.5769 1338.53 39.2767C1338.53 39.1675 1338.31 39.1675 1338.23 39.2221C1338.09 39.304 1338.09 39.495 1337.98 39.6042C1337.9 39.6861 1337.77 39.7134 1337.66 39.7134C1337.55 39.7134 1337.38 39.6588 1337.33 39.5769C1337.25 39.495 1337.19 39.304 1337.27 39.2494C1337.49 39.1129 1337.79 39.1675 1338.04 39.1129C1338.15 39.0856 1338.28 39.0583 1338.34 38.9764C1338.42 38.8127 1338.42 38.6216 1338.34 38.4578C1338.31 38.3759 1338.17 38.3759 1338.09 38.4032C1337.98 38.4305 1337.93 38.5943 1337.79 38.5943C1337.63 38.5943 1337.46 38.5124 1337.36 38.4032C1337.27 38.2941 1337.25 38.1303 1337.3 38.0211C1337.38 37.8301 1337.66 37.7755 1337.74 37.5844C1337.85 37.3388 1337.93 37.0385 1337.87 36.7656C1337.85 36.6564 1337.63 36.6018 1337.55 36.6837C1337.41 36.7656 1337.44 36.9566 1337.36 37.0658C1337.25 37.2296 1337.19 37.4752 1337.03 37.5571C1336.92 37.6117 1336.73 37.5025 1336.7 37.3661C1336.65 37.1477 1336.78 36.9293 1336.84 36.7383C1336.92 36.5199 1337.03 36.3016 1337.16 36.1105C1337.3 35.9195 1337.57 35.8376 1337.68 35.6192C1337.77 35.4554 1337.85 35.2371 1337.74 35.1006C1337.66 34.9914 1337.46 35.0733 1337.36 35.1552C1337.27 35.2098 1337.3 35.4009 1337.22 35.4554C1336.97 35.5646 1336.67 35.4827 1336.46 35.5919C1336.26 35.7011 1336.18 35.8922 1336.07 36.0832C1335.88 36.4107 1335.85 36.9839 1335.77 37.0385C1335.69 37.1204 1335.5 37.0931 1335.45 36.9839C1335.36 36.8475 1335.5 36.6291 1335.39 36.4926C1335.31 36.4107 1335.09 36.4107 1335.01 36.4926C1334.9 36.6018 1334.87 36.7656 1334.87 36.9293C1334.87 37.175 1334.9 37.4206 1335.01 37.639C1335.2 37.9938 1335.5 38.2668 1335.75 38.5943C1335.99 38.9218 1336.29 39.2221 1336.43 39.6042C1336.51 39.8499 1336.54 40.1501 1336.43 40.3684C1336.35 40.5868 1336.13 40.8052 1335.91 40.8052C1335.61 40.7779 1335.39 40.4503 1335.14 40.2866C1334.9 40.1228 1334.65 39.9044 1334.38 39.8498C1333.75 39.7407 1333.1 39.8498 1332.44 39.8498C1331.87 39.8498 1331.27 39.9317 1330.7 39.8498C1330.42 39.8226 1330.12 39.7134 1329.93 39.5223C1329.74 39.3313 1329.6 39.0583 1329.6 38.8127C1329.58 38.4578 1329.71 38.1303 1329.85 37.8028C1329.96 37.5844 1330.12 37.3661 1330.34 37.2296C1330.5 37.1204 1330.78 37.0658 1330.94 37.1204C1331.13 37.2023 1331.65 37.9119 1331.76 37.8846C1331.87 37.8574 1331.79 37.2296 1331.73 37.0385C1331.62 36.7383 1331.3 36.5745 1331.21 36.2743C1331.19 36.1924 1331.32 36.0832 1331.41 36.0832C1331.57 36.0832 1331.76 36.1924 1331.9 36.3289C1331.98 36.3835 1332.33 36.9021 1332.42 36.8748C1332.5 36.8475 1332.36 36.1378 1332.28 35.9195C1332.14 35.6192 1331.71 35.4009 1331.68 35.319C1331.65 35.2644 1331.68 35.2098 1331.76 35.1825C1331.92 35.1825 1332.09 35.2644 1332.25 35.319C1332.39 35.3736 1332.61 35.5373 1332.69 35.51C1332.77 35.4827 1332.69 35.2371 1332.61 35.1279C1332.31 34.7731 1331.9 34.5547 1331.6 34.2272C1331.43 34.0634 1331.27 33.8451 1331.27 33.5994C1331.27 33.4629 1331.43 33.3265 1331.57 33.2719C1331.82 33.1627 1332.14 33.1081 1332.36 32.9717C1332.44 32.9171 1332.39 32.8625 1332.31 32.8352C1331.95 32.6987 1331.57 32.6441 1331.19 32.6441C1330.97 32.6441 1330.78 32.7806 1330.56 32.8352C1330.42 32.8898 1330.29 32.9717 1330.12 32.9717C1329.85 32.9717 1329.55 32.9989 1329.36 32.8352C1329.25 32.726 1329.39 32.5076 1329.47 32.3439C1329.55 32.2074 1329.69 32.1255 1329.8 32.0163C1329.88 31.9345 1330.12 31.8526 1330.04 31.8253C1329.96 31.798 1329.52 31.798 1329.28 31.8799C1329.06 31.9345 1328.87 32.0163 1328.7 32.1801C1328.57 32.3166 1328.59 32.6168 1328.4 32.6987C1328.08 32.8898 1327.91 32.8352 1327.56 32.9989C1327.48 33.0535 1327.28 33.2719 1327.2 33.2992C1326.77 33.3538 1325.89 33.1354 1325.86 33.2173C1325.81 33.2992 1326.55 33.7086 1326.68 34.0907C1326.74 34.2545 1326.33 34.0088 1326.17 34.0361C1325.89 34.0634 1325.62 34.118 1325.4 34.2272C1325.18 34.3364 1324.99 34.5274 1324.83 34.7185C1324.66 34.8823 1324.58 35.1006 1324.39 35.2371C1324.31 35.2917 1324.12 35.2098 1324.06 35.2917C1323.98 35.4009 1323.95 35.6465 1324.09 35.6465L1324.85 35.7011C1324.99 35.7011 1324.72 36.0013 1324.8 36.1378C1324.85 36.2197 1325.05 36.1924 1325.13 36.1378C1325.24 36.0832 1325.29 35.9195 1325.43 35.8376C1325.56 35.7557 1325.7 35.6465 1325.86 35.6465C1326.06 35.6465 1326.3 35.7284 1326.38 35.8922C1326.47 36.0559 1326.27 36.247 1326.25 36.4107C1326.22 36.6018 1326.33 36.8475 1326.19 36.9839C1325.78 37.3661 1325.65 37.0385 1325.05 37.8028C1324.55 38.4032 1324.77 38.0757 1324.61 38.8672C1324.58 39.031 1324.55 39.1948 1324.42 39.304C1324.28 39.3858 1324.06 39.4404 1323.93 39.3585C1323.65 39.2221 1323.49 38.9491 1323.3 38.6762C1323.19 38.5397 1323.24 38.2941 1323.11 38.1849C1322.92 38.0757 1322.64 38.0757 1322.43 38.1303C1322.26 38.1849 1322.18 38.376 1322.1 38.5124C1321.88 38.8127 1321.72 39.1675 1321.53 39.4677C1321.36 39.7134 1321.14 39.9317 1321.01 40.1774C1320.92 40.3139 1320.98 40.4776 1320.9 40.6141C1320.73 40.9962 1320.6 41.351 1320.41 41.7059C1320.32 41.8423 1320.16 41.9242 1320.11 42.088C1320.08 42.2518 1320.13 42.6066 1320.21 42.6066C1320.3 42.6066 1320.57 42.4155 1320.73 42.3063C1320.92 42.2245 1321.28 42.1153 1321.31 42.0607C1321.33 42.0061 1321.12 41.815 1321.01 41.6786C1320.82 41.4329 1321.22 41.0781 1321.39 40.8052C1321.44 40.696 1321.58 40.6687 1321.63 40.5595C1321.74 40.3412 1321.77 40.0682 1321.88 39.8498C1322.02 39.5496 1322.18 39.2494 1322.4 39.031C1322.51 38.9218 1322.7 38.84 1322.84 38.9491C1323.05 39.0856 1323.08 39.3858 1323.22 39.6315C1323.33 39.7953 1323.46 39.959 1323.52 40.1501C1323.57 40.3139 1323.41 40.5322 1323.52 40.6687C1323.65 40.8324 1323.93 40.887 1324.15 40.9143L1324.64 40.9689L1324.69 41.6513C1324.72 41.8969 1324.17 41.7059 1323.93 41.7605C1323.71 41.815 1323.49 41.8969 1323.24 41.9515C1323.03 42.0061 1322.62 41.815 1322.56 42.0607C1322.37 43.016 1322.62 43.9713 1322.67 44.9266C1322.67 45.1723 1322.53 45.5817 1322.78 45.6909L1323.24 45.8819C1323.33 46.073 1323.38 46.3186 1323.49 46.4551C1323.46 46.5916 1323.6 46.6189 1323.71 46.6462Z" fill="white"/>
            <path d="M1338.75 28.4408C1338.75 28.2498 1338.61 28.1679 1338.37 28.1679H1337.44C1337.19 28.1679 1337.06 28.2498 1337.06 28.4408C1337.06 28.6319 1337.19 28.7138 1337.44 28.7138H1337.63V30.4333C1337.63 30.7336 1337.71 30.87 1337.9 30.87C1338.09 30.87 1338.17 30.7336 1338.17 30.4333V28.7138H1338.37C1338.64 28.7138 1338.75 28.6319 1338.75 28.4408ZM1336.1 29.0413C1336.1 29.2597 1335.99 29.3688 1335.77 29.3688H1335.53V28.7138H1335.77C1335.99 28.7138 1336.1 28.823 1336.1 29.0413ZM1336.7 30.5971C1336.7 30.4879 1336.65 30.3787 1336.54 30.2423L1336.1 29.6964C1336.46 29.6145 1336.67 29.3416 1336.67 28.9594C1336.67 28.4681 1336.35 28.1133 1335.77 28.1133H1335.36C1335.06 28.1133 1334.98 28.2498 1334.98 28.55V30.406C1334.98 30.7063 1335.06 30.8427 1335.25 30.8427C1335.45 30.8427 1335.53 30.7063 1335.53 30.406V29.751L1336.15 30.6517C1336.26 30.7882 1336.35 30.87 1336.46 30.87C1336.59 30.87 1336.7 30.7609 1336.7 30.5971ZM1333.81 29.751H1333.23L1333.53 28.7684L1333.81 29.751ZM1334.57 30.5698C1334.57 30.5152 1334.57 30.4606 1334.54 30.3787L1333.94 28.4681C1333.86 28.2498 1333.73 28.1133 1333.53 28.1133C1333.34 28.1133 1333.21 28.2498 1333.13 28.4954L1332.5 30.3787C1332.47 30.4333 1332.47 30.4879 1332.47 30.5425C1332.47 30.7063 1332.58 30.8427 1332.72 30.8427C1332.83 30.8427 1332.93 30.7609 1332.99 30.5698L1333.07 30.2969H1333.94L1334 30.5425C1334.05 30.7336 1334.14 30.8427 1334.27 30.8427C1334.46 30.87 1334.57 30.7609 1334.57 30.5698ZM1332.09 29.6145C1332.09 29.3143 1331.98 29.2051 1331.76 29.2051H1331.41C1331.19 29.2051 1331.08 29.287 1331.08 29.478C1331.08 29.6691 1331.19 29.751 1331.41 29.751H1331.57C1331.57 30.0785 1331.41 30.2969 1331.13 30.2969C1330.83 30.2969 1330.61 29.9693 1330.61 29.4507C1330.61 28.9321 1330.83 28.6319 1331.13 28.6319C1331.43 28.6319 1331.57 28.8775 1331.71 28.8775C1331.82 28.8775 1331.92 28.7411 1331.92 28.6046C1331.92 28.3317 1331.62 28.0587 1331.16 28.0587C1330.5 28.0587 1330.1 28.6046 1330.1 29.478C1330.1 30.3242 1330.5 30.8973 1331.11 30.8973C1331.71 30.8973 1332.09 30.3514 1332.09 29.6145ZM1329.96 28.4408C1329.96 28.2498 1329.82 28.1679 1329.58 28.1679H1328.65C1328.4 28.1679 1328.27 28.2498 1328.27 28.4408C1328.27 28.6319 1328.4 28.7138 1328.65 28.7138H1328.84V30.4333C1328.84 30.7336 1328.92 30.87 1329.11 30.87C1329.3 30.87 1329.39 30.7336 1329.39 30.4333V28.7138H1329.58C1329.82 28.7138 1329.96 28.6319 1329.96 28.4408ZM1328.16 28.4408C1328.16 28.2498 1328.02 28.1679 1327.78 28.1679H1326.85C1326.6 28.1679 1326.47 28.2498 1326.47 28.4408C1326.47 28.6319 1326.6 28.7138 1326.85 28.7138H1327.04V30.4333C1327.04 30.7336 1327.12 30.87 1327.31 30.87C1327.5 30.87 1327.58 30.7336 1327.58 30.4333V28.7138H1327.78C1328.02 28.7138 1328.16 28.6319 1328.16 28.4408ZM1326.14 29.6691V28.55C1326.14 28.2498 1326.06 28.1133 1325.86 28.1133C1325.67 28.1133 1325.59 28.2498 1325.59 28.55V29.6145C1325.59 30.0785 1325.43 30.3242 1325.13 30.3242C1324.83 30.3242 1324.66 30.0785 1324.66 29.6145V28.55C1324.66 28.2498 1324.58 28.1133 1324.39 28.1133C1324.2 28.1133 1324.12 28.2498 1324.12 28.55V29.6691C1324.12 30.4606 1324.5 30.8973 1325.13 30.8973C1325.73 30.8973 1326.14 30.4606 1326.14 29.6691ZM1323.9 28.4408C1323.9 28.2498 1323.76 28.1679 1323.52 28.1679H1322.59C1322.34 28.1679 1322.21 28.2498 1322.21 28.4408C1322.21 28.6319 1322.34 28.7138 1322.59 28.7138H1322.78V30.4333C1322.78 30.7336 1322.86 30.87 1323.05 30.87C1323.24 30.87 1323.33 30.7336 1323.33 30.4333V28.7138H1323.52C1323.76 28.7138 1323.9 28.6319 1323.9 28.4408ZM1322.02 29.9966C1322.02 29.5872 1321.8 29.3416 1321.36 29.1778C1321.09 29.0686 1320.92 29.0413 1320.92 28.8503C1320.92 28.7138 1321.03 28.6319 1321.2 28.6319C1321.33 28.6319 1321.5 28.7138 1321.61 28.7138C1321.77 28.7138 1321.85 28.6046 1321.85 28.4681C1321.85 28.2498 1321.61 28.086 1321.2 28.086C1320.68 28.086 1320.35 28.4408 1320.35 28.9321C1320.35 29.3416 1320.57 29.5326 1321.01 29.6964C1321.25 29.7783 1321.42 29.8601 1321.42 30.0785C1321.42 30.2423 1321.31 30.3514 1321.14 30.3514C1320.9 30.3514 1320.71 30.215 1320.57 30.215C1320.41 30.215 1320.3 30.3242 1320.3 30.4879C1320.3 30.7063 1320.62 30.9246 1321.06 30.9246C1321.66 30.8973 1322.02 30.5152 1322.02 29.9966Z" fill="white"/>
        </g>
    </g>
    <defs>
        <clipPath id="clip0_1_40">
            <rect width="80" height="80" fill="white"/>
        </clipPath>
        <clipPath id="clip1_1_40">
            <rect width="80" height="80" fill="white" transform="translate(160)"/>
        </clipPath>
        <clipPath id="clip2_1_40">
            <rect width="80" height="80" fill="white" transform="translate(800)"/>
        </clipPath>
        <clipPath id="clip3_1_40">
            <rect width="80" height="80" fill="white" transform="translate(970)"/>
        </clipPath>
        <clipPath id="clip4_1_40">
            <rect width="80" height="80" fill="white" transform="translate(1290)"/>
        </clipPath>
    </defs>
</svg>
