<?xml version="1.0" encoding="UTF-8"?>
<!DOCTYPE svg PUBLIC "-//W3C//DTD SVG 1.1//EN" "http://www.w3.org/Graphics/SVG/1.1/DTD/svg11.dtd">
<!-- Creator: CorelDRAW X7 -->
<svg xmlns="http://www.w3.org/2000/svg" xml:space="preserve" width="250mm" height="200mm" version="1.1" style="shape-rendering:geometricPrecision; text-rendering:geometricPrecision; image-rendering:optimizeQuality; fill-rule:evenodd; clip-rule:evenodd"
viewBox="0 0 25000 20000"
 xmlns:xlink="http://www.w3.org/1999/xlink">
 <defs>
  <style type="text/css">
   <![CDATA[
    .fil0 {fill:none}
    .fil1 {fill:white;fill-rule:nonzero}
    .fil3 {fill:#0047A0;fill-rule:nonzero}
    .fil2 {fill:#CD2E3A;fill-rule:nonzero}
   ]]>
  </style>
 </defs>
 <g id="Слой_x0020_1">
  <metadata id="CorelCorpID_0Corel-Layer"/>
  <g id="_622549616">
   <rect class="fil0" x="4000" y="7314" width="17000" height="5373"/>
   <g>
    <path class="fil1" d="M7622 10706l-300 0 0 1055 188 0 0 -746 161 746 204 0 149 -756 0 756 204 0 0 -1055 -300 0 -147 749 -159 -749zm1017 1055l341 0c216,0 322,-92 322,-260l0 -534c0,-169 -106,-261 -322,-261l-341 0 0 1055zm337 -904c69,0 110,27 110,102l0 549c0,75 -41,103 -110,103l-121 0 0 -754 121 0zm1016 -151l-300 0 0 1055 188 0 0 -746 161 746 204 0 148 -756 0 756 204 0 0 -1055 -300 0 -147 749 -158 -749zm1438 662l0 151c0,75 -43,102 -111,102 -69,0 -112,-27 -112,-102l0 -570c0,-76 43,-104 112,-104 68,0 111,28 111,104l0 113 204 0 0 -103c0,-169 -110,-265 -321,-265 -212,0 -322,96 -322,265l0 549c0,169 110,265 322,265 211,0 321,-96 321,-265l0 -140 -204 0zm1068 -662l-315 0 -220 1055 198 0 38 -191 264 0 37 191 218 0 -220 -1055zm-168 187l104 534 -208 0 104 -534zm1413 868c-22,-39 -24,-77 -24,-128l0 -163c0,-110 -35,-190 -143,-224 96,-35 142,-106 142,-214l0 -83c0,-163 -97,-243 -320,-243l-325 0 0 1055 215 0 0 -429 75 0c98,0 141,36 141,134l0 166c0,86 8,102 19,129l220 0zm-351 -904c77,0 110,33 110,108l0 104c0,85 -49,112 -129,112l-85 0 0 -324 104 0zm723 745l0 159 208 0 0 -159 -208 0zm1022 -234l0 151c0,75 -44,102 -112,102 -69,0 -112,-27 -112,-102l0 -570c0,-76 43,-104 112,-104 68,0 112,28 112,104l0 113 203 0 0 -103c0,-169 -109,-265 -321,-265 -212,0 -322,96 -322,265l0 549c0,169 110,265 322,265 212,0 321,-96 321,-265l0 -140 -203 0zm787 -419c0,-76 44,-104 112,-104 69,0 112,28 112,104l0 570c0,75 -43,104 -112,104 -68,0 -112,-29 -112,-104l0 -570zm-215 559c0,169 115,265 327,265 212,0 327,-96 327,-265l0 -549c0,-169 -115,-265 -327,-265 -212,0 -327,96 -327,265l0 549zm1346 -802l-300 0 0 1055 189 0 0 -746 160 746 204 0 149 -756 0 756 204 0 0 -1055 -300 0 -147 749 -159 -749z"/>
    <g>
     <polygon class="fil1" points="6689,11376 5156,11376 5156,11092 6689,11092 "/>
     <polygon class="fil1" points="5862,11765 5155,11765 5155,11481 5862,11481 "/>
     <polygon class="fil1" points="6689,11765 5982,11765 5982,11481 6689,11481 "/>
     <polygon class="fil1" points="5862,10987 5155,10987 5155,10703 5862,10703 "/>
     <polygon class="fil1" points="6689,10987 5982,10987 5982,10703 6689,10703 "/>
    </g>
    <g>
     <polygon class="fil1" points="19029,11765 18322,11765 18322,11481 19029,11481 "/>
     <polygon class="fil1" points="19845,11765 19138,11765 19138,11481 19845,11481 "/>
     <polygon class="fil1" points="19029,10987 18322,10987 18322,10703 19029,10703 "/>
     <polygon class="fil1" points="19845,10987 19138,10987 19138,10703 19845,10703 "/>
     <polygon class="fil1" points="19029,11376 18322,11376 18322,11092 19029,11092 "/>
     <polygon class="fil1" points="19845,11376 19138,11376 19138,11092 19845,11092 "/>
    </g>
   </g>
   <path class="fil2" d="M10909 10122l0 -1895 -632 0c-205,0 -404,71 -562,201l-868 712c-29,24 -72,3 -72,-34l0 -879 -747 0c-191,0 -378,62 -531,176l-2293 1719 1102 0c148,0 292,-50 409,-141l898 -703c30,-22 72,-2 72,35l0 809 803 0c158,0 310,-56 429,-157l800 -677c28,-24 73,-4 73,34l0 800 1119 0z"/>
   <path class="fil3" d="M14103 10122l0 -1895 632 0c204,0 403,71 561,201l868 712c29,24 73,3 73,-34l0 -879 746 0c192,0 378,62 531,176l2294 1719 -1102 0c-148,0 -292,-50 -409,-141l-899 -703c-29,-22 -72,-2 -72,35l0 809 -803 0c-157,0 -309,-56 -429,-157l-799 -677c-29,-24 -73,-4 -73,34l0 800 -1119 0z"/>
   <path class="fil2" d="M13813 9174l-941 0c0,-86 -35,-164 -91,-220 -57,-57 -135,-91 -221,-91l-1362 0 0 -636 1668 0c523,0 947,424 947,947z"/>
   <path class="fil3" d="M13813 9174c0,524 -424,948 -947,948l-1668 0 0 -636 1362 0c172,0 312,-140 312,-312l941 0z"/>
  </g>
 </g>
</svg>
