<svg width="552" height="72" viewBox="0 0 552 72" fill="none" xmlns="http://www.w3.org/2000/svg">
<path stroke="white" stroke-width="5" d="M215.622 71.622V0H191.735C183.987 0 176.466 2.68346 170.494 7.59685L137.688 34.5071C136.592 35.4142 134.967 34.6205 134.967 33.222V0H106.734C99.515 0 92.4472 2.34331 86.6646 6.65197L0 71.622H41.6504C47.2441 71.622 52.6866 69.7323 57.1087 66.2929L91.0488 39.7228C92.1827 38.8913 93.7701 39.6472 93.7701 41.0457V71.622H124.12C130.091 71.622 135.836 69.5055 140.334 65.6882L170.57 40.1008C171.628 39.1937 173.329 39.9496 173.329 41.3858V71.622H215.622Z" fill="#CD2E3A"/>
<path stroke="white" stroke-width="5" d="M336.34 71.622V0H360.227C367.937 0 375.458 2.68346 381.43 7.59685L414.236 34.5071C415.332 35.4142 416.995 34.6205 416.995 33.222V0H445.191C452.447 0 459.477 2.34331 465.26 6.65197L551.962 71.622H510.312C504.718 71.622 499.276 69.7323 494.854 66.2929L460.876 39.7228C459.78 38.8913 458.154 39.6472 458.154 41.0457V71.622H427.805C421.871 71.622 416.126 69.5055 411.591 65.6882L381.392 40.1008C380.296 39.1937 378.633 39.9496 378.633 41.3858V71.622H336.34Z" fill="#0047A0"/>
<path stroke="white" stroke-width="5" d="M325.38 35.7921H289.814C289.814 32.5417 288.491 29.5937 286.375 27.4772C284.221 25.3228 281.272 24.0378 278.022 24.0378H226.545V0H289.587C309.354 0 325.38 16.0252 325.38 35.7921Z" fill="#CD2E3A"/>
<path stroke="white" stroke-width="5" d="M325.38 35.7921C325.38 55.5968 309.354 71.622 289.587 71.622H226.545V47.5842H278.022C284.523 47.5842 289.814 42.2929 289.814 35.7921H325.38Z" fill="#0047A0"/>
</svg>
