<svg width="556" height="135" viewBox="0 0 556 135" fill="none" xmlns="http://www.w3.org/2000/svg">
<path d="M93.2409 93.6945H81.9023V133.568H89.0079V105.373L95.0929 133.568H102.803L108.435 104.995V133.568H116.145V93.6945H104.806L99.2504 122.003L93.2409 93.6945ZM131.679 133.568H144.567C152.731 133.568 156.737 130.091 156.737 123.742V103.559C156.737 97.1716 152.731 93.6945 144.567 93.6945H131.679V133.568ZM144.416 99.4016C147.024 99.4016 148.573 100.422 148.573 103.257V124.006C148.573 126.841 147.024 127.899 144.416 127.899H139.843V99.4016H144.416ZM182.816 93.6945H171.477V133.568H178.583V105.373L184.668 133.568H192.378L197.972 104.995V133.568H205.682V93.6945H194.343L188.787 122.003L182.816 93.6945ZM237.165 118.715V124.422C237.165 127.257 235.54 128.277 232.97 128.277C230.362 128.277 228.737 127.257 228.737 124.422V102.879C228.737 100.006 230.362 98.948 232.97 98.948C235.54 98.948 237.165 100.006 237.165 102.879V107.15H244.876V103.257C244.876 96.8693 240.718 93.2409 232.743 93.2409C224.731 93.2409 220.573 96.8693 220.573 103.257V124.006C220.573 130.394 224.731 134.022 232.743 134.022C240.718 134.022 244.876 130.394 244.876 124.006V118.715H237.165ZM277.531 93.6945H265.625L257.31 133.568H264.794L266.23 126.35H276.208L277.606 133.568H285.846L277.531 93.6945ZM271.181 100.762L275.112 120.945H267.25L271.181 100.762ZM324.586 133.568C323.754 132.094 323.679 130.658 323.679 128.731V122.57C323.679 118.413 322.356 115.389 318.274 114.104C321.902 112.781 323.641 110.098 323.641 106.016V102.879C323.641 96.7181 319.975 93.6945 311.546 93.6945H299.263V133.568H307.389V117.354H310.224C313.928 117.354 315.553 118.715 315.553 122.419V128.693C315.553 131.943 315.855 132.548 316.271 133.568H324.586ZM311.32 99.4016C314.23 99.4016 315.477 100.649 315.477 103.483V107.414C315.477 110.627 313.625 111.647 310.602 111.647H307.389V99.4016H311.32ZM338.646 127.559V133.568H346.507V127.559H338.646ZM377.272 118.715V124.422C377.272 127.257 375.609 128.277 373.039 128.277C370.431 128.277 368.806 127.257 368.806 124.422V102.879C368.806 100.006 370.431 98.948 373.039 98.948C375.609 98.948 377.272 100.006 377.272 102.879V107.15H384.945V103.257C384.945 96.8693 380.825 93.2409 372.813 93.2409C364.8 93.2409 360.643 96.8693 360.643 103.257V124.006C360.643 130.394 364.8 134.022 372.813 134.022C380.825 134.022 384.945 130.394 384.945 124.006V118.715H377.272ZM407.017 102.879C407.017 100.006 408.68 98.948 411.25 98.948C413.858 98.948 415.483 100.006 415.483 102.879V124.422C415.483 127.257 413.858 128.353 411.25 128.353C408.68 128.353 407.017 127.257 407.017 124.422V102.879ZM398.891 124.006C398.891 130.394 403.238 134.022 411.25 134.022C419.263 134.022 423.609 130.394 423.609 124.006V103.257C423.609 96.8693 419.263 93.2409 411.25 93.2409C403.238 93.2409 398.891 96.8693 398.891 103.257V124.006ZM449.764 93.6945H438.425V133.568H445.568V105.373L451.616 133.568H459.326L464.957 104.995V133.568H472.668V93.6945H461.329L455.773 122.003L449.764 93.6945Z" fill="black"/>
<path d="M57.9779 119.017H0.0377808V108.283H57.9779V119.017Z" fill="black"/>
<path d="M26.7213 133.72H0V122.986H26.7213V133.72Z" fill="black"/>
<path d="M57.978 133.72H31.2567V122.986H57.978V133.72Z" fill="black"/>
<path d="M26.7213 104.315H0V93.5811H26.7213V104.315Z" fill="black"/>
<path d="M57.978 104.315H31.2567V93.5811H57.978V104.315Z" fill="black"/>
<path d="M524.372 133.72H497.65V122.986H524.372V133.72Z" fill="black"/>
<path d="M555.213 133.72H528.491V122.986H555.213V133.72Z" fill="black"/>
<path d="M524.372 104.315H497.65V93.5811H524.372V104.315Z" fill="black"/>
<path d="M555.213 104.315H528.491V93.5811H555.213V104.315Z" fill="black"/>
<path d="M524.372 119.017H497.65V108.283H524.372V119.017Z" fill="black"/>
<path d="M555.213 119.017H528.491V108.283H555.213V119.017Z" fill="black"/>
<path d="M217.474 71.622V0H193.587C185.839 0 178.318 2.68346 172.346 7.59685L139.54 34.5071C138.444 35.4142 136.819 34.6205 136.819 33.222V0H108.586C101.367 0 94.2992 2.34331 88.5165 6.65197L1.85193 71.622H43.5023C49.096 71.622 54.5385 69.7323 58.9606 66.2929L92.9007 39.7228C94.0346 38.8913 95.622 39.6472 95.622 41.0457V71.622H125.972C131.943 71.622 137.688 69.5055 142.186 65.6882L172.422 40.1008C173.48 39.1937 175.181 39.9496 175.181 41.3858V71.622H217.474Z" fill="#CD2E3A"/>
<path d="M338.192 71.622V0H362.079C369.789 0 377.31 2.68346 383.282 7.59685L416.088 34.5071C417.184 35.4142 418.847 34.6205 418.847 33.222V0H447.043C454.299 0 461.329 2.34331 467.112 6.65197L553.814 71.622H512.164C506.57 71.622 501.128 69.7323 496.706 66.2929L462.728 39.7228C461.632 38.8913 460.006 39.6472 460.006 41.0457V71.622H429.657C423.723 71.622 417.978 69.5055 413.443 65.6882L383.244 40.1008C382.148 39.1937 380.485 39.9496 380.485 41.3858V71.622H338.192Z" fill="#0047A0"/>
<path d="M327.231 35.7921H291.666C291.666 32.5417 290.343 29.5937 288.227 27.4772C286.072 25.3228 283.124 24.0378 279.874 24.0378H228.397V0H291.439C311.206 0 327.231 16.0252 327.231 35.7921Z" fill="#CD2E3A"/>
<path d="M327.231 35.7921C327.231 55.5968 311.206 71.622 291.439 71.622H228.397V47.5842H279.874C286.375 47.5842 291.666 42.2929 291.666 35.7921H327.231Z" fill="#0047A0"/>
</svg>
